<svg width="1200" height="675" viewBox="0 0 1200 675" xmlns="http://www.w3.org/2000/svg" font-family="'Inter', system-ui, -apple-system, 'Segoe UI', Arial, sans-serif">
  <defs>
    <pattern id="monitoring-light-en-dots" width="28" height="28" patternUnits="userSpaceOnUse"><circle cx="2" cy="2" r="1.4" fill="#c8d6d2" fill-opacity="0.7"/></pattern>
    <filter id="monitoring-light-en-sh" x="-20%" y="-20%" width="140%" height="160%"><feDropShadow dx="0" dy="6" stdDeviation="11" flood-color="#0a2229" flood-opacity="0.16"/></filter>
  </defs>
  <rect width="1200" height="675" fill="#eef3f2"/>
  <rect width="1200" height="675" fill="url(#monitoring-light-en-dots)"/>
  <path d="M740 428 C 766 428, 770 432, 792 432" stroke="#006d77" stroke-width="2.5" stroke-dasharray="7 6" fill="none"/><g filter="url(#monitoring-light-en-sh)"><rect x="64" y="84" width="700" height="512" rx="16" fill="#ffffff" stroke="#c8d6d2" stroke-width="1.5"/></g><path d="M64 98 a14 14 0 0 1 14 -14 h672 a14 14 0 0 1 14 14 v26 h-700 z" fill="#0a2229"/><circle cx="86" cy="104" r="5" fill="#006d77"/><circle cx="100" cy="104" r="5" fill="#006d77" fill-opacity="0.55"/><circle cx="114" cy="104" r="5" fill="#eef3f2" fill-opacity="0.5"/><text x="414" y="108" font-size="12.5" fill="#eef3f2" fill-opacity="0.85" font-weight="normal" font-family="'JetBrains Mono', ui-monospace, SFMono-Regular, Menlo, Consolas, monospace" text-anchor="middle">uptime-kuma</text><text x="88" y="158" font-size="14" fill="#0a2229" font-weight="bold" font-family="'Inter', system-ui, -apple-system, 'Segoe UI', Arial, sans-serif">Service health</text><rect x="592" y="140" width="148" height="26" rx="13" fill="#22c55e" fill-opacity="0.14" stroke="#22c55e" stroke-opacity="0.42"/><circle cx="610" cy="153" r="4.5" fill="#22c55e"/><text x="622" y="157" font-size="12" fill="#22c55e" font-weight="bold" font-family="'JetBrains Mono', ui-monospace, SFMono-Regular, Menlo, Consolas, monospace">14 / 15 up</text><g><rect x="88" y="180" width="652" height="48" rx="10" fill="#f4f8f7" stroke="#c8d6d2" stroke-width="1.5"/></g><circle cx="112" cy="204" r="6.5" fill="#22c55e" fill-opacity="0.2" stroke="#22c55e" stroke-opacity="0.55"/><circle cx="112" cy="204" r="3" fill="#22c55e"/><text x="130" y="209" font-size="13" fill="#0a2229" font-weight="bold" font-family="'Inter', system-ui, -apple-system, 'Segoe UI', Arial, sans-serif">portfolio · web</text><rect x="436" y="195" width="5" height="18" rx="1.5" fill="#22c55e" fill-opacity="0.5"/><rect x="444" y="195" width="5" height="18" rx="1.5" fill="#22c55e" fill-opacity="0.5"/><rect x="452" y="195" width="5" height="18" rx="1.5" fill="#22c55e" fill-opacity="0.5"/><rect x="460" y="195" width="5" height="18" rx="1.5" fill="#22c55e" fill-opacity="0.5"/><rect x="468" y="195" width="5" height="18" rx="1.5" fill="#22c55e" fill-opacity="0.5"/><rect x="476" y="195" width="5" height="18" rx="1.5" fill="#22c55e" fill-opacity="0.5"/><rect x="484" y="195" width="5" height="18" rx="1.5" fill="#22c55e" fill-opacity="0.5"/><rect x="492" y="195" width="5" height="18" rx="1.5" fill="#22c55e" fill-opacity="0.5"/><rect x="500" y="195" width="5" height="18" rx="1.5" fill="#22c55e" fill-opacity="0.5"/><rect x="508" y="195" width="5" height="18" rx="1.5" fill="#22c55e" fill-opacity="0.5"/><rect x="516" y="195" width="5" height="18" rx="1.5" fill="#22c55e" fill-opacity="0.5"/><rect x="524" y="195" width="5" height="18" rx="1.5" fill="#22c55e" fill-opacity="0.5"/><rect x="532" y="195" width="5" height="18" rx="1.5" fill="#22c55e" fill-opacity="0.5"/><rect x="540" y="195" width="5" height="18" rx="1.5" fill="#22c55e" fill-opacity="0.5"/><rect x="548" y="195" width="5" height="18" rx="1.5" fill="#22c55e" fill-opacity="0.5"/><rect x="556" y="195" width="5" height="18" rx="1.5" fill="#22c55e" fill-opacity="0.5"/><rect x="564" y="195" width="5" height="18" rx="1.5" fill="#22c55e" fill-opacity="0.5"/><rect x="572" y="195" width="5" height="18" rx="1.5" fill="#22c55e" fill-opacity="0.5"/><rect x="580" y="195" width="5" height="18" rx="1.5" fill="#22c55e" fill-opacity="0.5"/><rect x="588" y="195" width="5" height="18" rx="1.5" fill="#22c55e" fill-opacity="0.5"/><text x="614" y="209" font-size="11.5" fill="#22c55e" font-weight="bold" font-family="'JetBrains Mono', ui-monospace, SFMono-Regular, Menlo, Consolas, monospace">99.98%</text><text x="724" y="209" font-size="11" fill="#486169" font-weight="normal" font-family="'JetBrains Mono', ui-monospace, SFMono-Regular, Menlo, Consolas, monospace" text-anchor="end">42 ms</text><g><rect x="88" y="236" width="652" height="48" rx="10" fill="#f4f8f7" stroke="#c8d6d2" stroke-width="1.5"/></g><circle cx="112" cy="260" r="6.5" fill="#22c55e" fill-opacity="0.2" stroke="#22c55e" stroke-opacity="0.55"/><circle cx="112" cy="260" r="3" fill="#22c55e"/><text x="130" y="265" font-size="13" fill="#0a2229" font-weight="bold" font-family="'Inter', system-ui, -apple-system, 'Segoe UI', Arial, sans-serif">api · contact</text><rect x="436" y="251" width="5" height="18" rx="1.5" fill="#22c55e" fill-opacity="0.5"/><rect x="444" y="251" width="5" height="18" rx="1.5" fill="#22c55e" fill-opacity="0.5"/><rect x="452" y="251" width="5" height="18" rx="1.5" fill="#22c55e" fill-opacity="0.5"/><rect x="460" y="251" width="5" height="18" rx="1.5" fill="#22c55e" fill-opacity="0.5"/><rect x="468" y="251" width="5" height="18" rx="1.5" fill="#22c55e" fill-opacity="0.5"/><rect x="476" y="251" width="5" height="18" rx="1.5" fill="#22c55e" fill-opacity="0.5"/><rect x="484" y="251" width="5" height="18" rx="1.5" fill="#22c55e" fill-opacity="0.5"/><rect x="492" y="251" width="5" height="18" rx="1.5" fill="#22c55e" fill-opacity="0.5"/><rect x="500" y="251" width="5" height="18" rx="1.5" fill="#22c55e" fill-opacity="0.5"/><rect x="508" y="251" width="5" height="18" rx="1.5" fill="#22c55e" fill-opacity="0.5"/><rect x="516" y="251" width="5" height="18" rx="1.5" fill="#22c55e" fill-opacity="0.5"/><rect x="524" y="251" width="5" height="18" rx="1.5" fill="#22c55e" fill-opacity="0.5"/><rect x="532" y="251" width="5" height="18" rx="1.5" fill="#22c55e" fill-opacity="0.5"/><rect x="540" y="251" width="5" height="18" rx="1.5" fill="#22c55e" fill-opacity="0.5"/><rect x="548" y="251" width="5" height="18" rx="1.5" fill="#22c55e" fill-opacity="0.5"/><rect x="556" y="251" width="5" height="18" rx="1.5" fill="#22c55e" fill-opacity="0.5"/><rect x="564" y="251" width="5" height="18" rx="1.5" fill="#22c55e" fill-opacity="0.5"/><rect x="572" y="251" width="5" height="18" rx="1.5" fill="#22c55e" fill-opacity="0.5"/><rect x="580" y="251" width="5" height="18" rx="1.5" fill="#22c55e" fill-opacity="0.5"/><rect x="588" y="251" width="5" height="18" rx="1.5" fill="#22c55e" fill-opacity="0.5"/><text x="614" y="265" font-size="11.5" fill="#22c55e" font-weight="bold" font-family="'JetBrains Mono', ui-monospace, SFMono-Regular, Menlo, Consolas, monospace">99.95%</text><text x="724" y="265" font-size="11" fill="#486169" font-weight="normal" font-family="'JetBrains Mono', ui-monospace, SFMono-Regular, Menlo, Consolas, monospace" text-anchor="end">31 ms</text><g><rect x="88" y="292" width="652" height="48" rx="10" fill="#f4f8f7" stroke="#c8d6d2" stroke-width="1.5"/></g><circle cx="112" cy="316" r="6.5" fill="#22c55e" fill-opacity="0.2" stroke="#22c55e" stroke-opacity="0.55"/><circle cx="112" cy="316" r="3" fill="#22c55e"/><text x="130" y="321" font-size="13" fill="#0a2229" font-weight="bold" font-family="'Inter', system-ui, -apple-system, 'Segoe UI', Arial, sans-serif">postgres</text><rect x="436" y="307" width="5" height="18" rx="1.5" fill="#22c55e" fill-opacity="0.5"/><rect x="444" y="307" width="5" height="18" rx="1.5" fill="#22c55e" fill-opacity="0.5"/><rect x="452" y="307" width="5" height="18" rx="1.5" fill="#22c55e" fill-opacity="0.5"/><rect x="460" y="307" width="5" height="18" rx="1.5" fill="#22c55e" fill-opacity="0.5"/><rect x="468" y="307" width="5" height="18" rx="1.5" fill="#22c55e" fill-opacity="0.5"/><rect x="476" y="307" width="5" height="18" rx="1.5" fill="#22c55e" fill-opacity="0.5"/><rect x="484" y="307" width="5" height="18" rx="1.5" fill="#22c55e" fill-opacity="0.5"/><rect x="492" y="307" width="5" height="18" rx="1.5" fill="#22c55e" fill-opacity="0.5"/><rect x="500" y="307" width="5" height="18" rx="1.5" fill="#22c55e" fill-opacity="0.5"/><rect x="508" y="307" width="5" height="18" rx="1.5" fill="#22c55e" fill-opacity="0.5"/><rect x="516" y="307" width="5" height="18" rx="1.5" fill="#22c55e" fill-opacity="0.5"/><rect x="524" y="307" width="5" height="18" rx="1.5" fill="#22c55e" fill-opacity="0.5"/><rect x="532" y="307" width="5" height="18" rx="1.5" fill="#22c55e" fill-opacity="0.5"/><rect x="540" y="307" width="5" height="18" rx="1.5" fill="#22c55e" fill-opacity="0.5"/><rect x="548" y="307" width="5" height="18" rx="1.5" fill="#22c55e" fill-opacity="0.5"/><rect x="556" y="307" width="5" height="18" rx="1.5" fill="#22c55e" fill-opacity="0.5"/><rect x="564" y="307" width="5" height="18" rx="1.5" fill="#22c55e" fill-opacity="0.5"/><rect x="572" y="307" width="5" height="18" rx="1.5" fill="#22c55e" fill-opacity="0.5"/><rect x="580" y="307" width="5" height="18" rx="1.5" fill="#22c55e" fill-opacity="0.5"/><rect x="588" y="307" width="5" height="18" rx="1.5" fill="#22c55e" fill-opacity="0.5"/><text x="614" y="321" font-size="11.5" fill="#22c55e" font-weight="bold" font-family="'JetBrains Mono', ui-monospace, SFMono-Regular, Menlo, Consolas, monospace">100%</text><text x="724" y="321" font-size="11" fill="#486169" font-weight="normal" font-family="'JetBrains Mono', ui-monospace, SFMono-Regular, Menlo, Consolas, monospace" text-anchor="end">3 ms</text><g><rect x="88" y="348" width="652" height="48" rx="10" fill="#f4f8f7" stroke="#c8d6d2" stroke-width="1.5"/></g><circle cx="112" cy="372" r="6.5" fill="#22c55e" fill-opacity="0.2" stroke="#22c55e" stroke-opacity="0.55"/><circle cx="112" cy="372" r="3" fill="#22c55e"/><text x="130" y="377" font-size="13" fill="#0a2229" font-weight="bold" font-family="'Inter', system-ui, -apple-system, 'Segoe UI', Arial, sans-serif">caddy · reverse proxy</text><rect x="436" y="363" width="5" height="18" rx="1.5" fill="#22c55e" fill-opacity="0.5"/><rect x="444" y="363" width="5" height="18" rx="1.5" fill="#22c55e" fill-opacity="0.5"/><rect x="452" y="363" width="5" height="18" rx="1.5" fill="#22c55e" fill-opacity="0.5"/><rect x="460" y="363" width="5" height="18" rx="1.5" fill="#22c55e" fill-opacity="0.5"/><rect x="468" y="363" width="5" height="18" rx="1.5" fill="#22c55e" fill-opacity="0.5"/><rect x="476" y="363" width="5" height="18" rx="1.5" fill="#22c55e" fill-opacity="0.5"/><rect x="484" y="363" width="5" height="18" rx="1.5" fill="#22c55e" fill-opacity="0.5"/><rect x="492" y="363" width="5" height="18" rx="1.5" fill="#22c55e" fill-opacity="0.5"/><rect x="500" y="363" width="5" height="18" rx="1.5" fill="#22c55e" fill-opacity="0.5"/><rect x="508" y="363" width="5" height="18" rx="1.5" fill="#22c55e" fill-opacity="0.5"/><rect x="516" y="363" width="5" height="18" rx="1.5" fill="#22c55e" fill-opacity="0.5"/><rect x="524" y="363" width="5" height="18" rx="1.5" fill="#22c55e" fill-opacity="0.5"/><rect x="532" y="363" width="5" height="18" rx="1.5" fill="#22c55e" fill-opacity="0.5"/><rect x="540" y="363" width="5" height="18" rx="1.5" fill="#22c55e" fill-opacity="0.5"/><rect x="548" y="363" width="5" height="18" rx="1.5" fill="#22c55e" fill-opacity="0.5"/><rect x="556" y="363" width="5" height="18" rx="1.5" fill="#22c55e" fill-opacity="0.5"/><rect x="564" y="363" width="5" height="18" rx="1.5" fill="#22c55e" fill-opacity="0.5"/><rect x="572" y="363" width="5" height="18" rx="1.5" fill="#22c55e" fill-opacity="0.5"/><rect x="580" y="363" width="5" height="18" rx="1.5" fill="#22c55e" fill-opacity="0.5"/><rect x="588" y="363" width="5" height="18" rx="1.5" fill="#22c55e" fill-opacity="0.5"/><text x="614" y="377" font-size="11.5" fill="#22c55e" font-weight="bold" font-family="'JetBrains Mono', ui-monospace, SFMono-Regular, Menlo, Consolas, monospace">100%</text><text x="724" y="377" font-size="11" fill="#486169" font-weight="normal" font-family="'JetBrains Mono', ui-monospace, SFMono-Regular, Menlo, Consolas, monospace" text-anchor="end">11 ms</text><g><rect x="88" y="404" width="652" height="48" rx="10" fill="#f4f8f7" stroke="#c8d6d2" stroke-width="1.5"/></g><circle cx="112" cy="428" r="6.5" fill="#ef4444" fill-opacity="0.2" stroke="#ef4444" stroke-opacity="0.55"/><circle cx="112" cy="428" r="3" fill="#ef4444"/><text x="130" y="433" font-size="13" fill="#0a2229" font-weight="bold" font-family="'Inter', system-ui, -apple-system, 'Segoe UI', Arial, sans-serif">wireguard</text><rect x="436" y="419" width="5" height="18" rx="1.5" fill="#22c55e" fill-opacity="0.5"/><rect x="444" y="419" width="5" height="18" rx="1.5" fill="#22c55e" fill-opacity="0.5"/><rect x="452" y="419" width="5" height="18" rx="1.5" fill="#22c55e" fill-opacity="0.5"/><rect x="460" y="419" width="5" height="18" rx="1.5" fill="#22c55e" fill-opacity="0.5"/><rect x="468" y="419" width="5" height="18" rx="1.5" fill="#22c55e" fill-opacity="0.5"/><rect x="476" y="419" width="5" height="18" rx="1.5" fill="#22c55e" fill-opacity="0.5"/><rect x="484" y="419" width="5" height="18" rx="1.5" fill="#22c55e" fill-opacity="0.5"/><rect x="492" y="419" width="5" height="18" rx="1.5" fill="#22c55e" fill-opacity="0.5"/><rect x="500" y="419" width="5" height="18" rx="1.5" fill="#22c55e" fill-opacity="0.5"/><rect x="508" y="419" width="5" height="18" rx="1.5" fill="#22c55e" fill-opacity="0.5"/><rect x="516" y="419" width="5" height="18" rx="1.5" fill="#22c55e" fill-opacity="0.5"/><rect x="524" y="419" width="5" height="18" rx="1.5" fill="#22c55e" fill-opacity="0.5"/><rect x="532" y="419" width="5" height="18" rx="1.5" fill="#22c55e" fill-opacity="0.5"/><rect x="540" y="419" width="5" height="18" rx="1.5" fill="#22c55e" fill-opacity="0.5"/><rect x="548" y="419" width="5" height="18" rx="1.5" fill="#22c55e" fill-opacity="0.5"/><rect x="556" y="419" width="5" height="18" rx="1.5" fill="#22c55e" fill-opacity="0.5"/><rect x="564" y="419" width="5" height="18" rx="1.5" fill="#22c55e" fill-opacity="0.5"/><rect x="572" y="419" width="5" height="18" rx="1.5" fill="#ef4444" fill-opacity="0.85"/><rect x="580" y="419" width="5" height="18" rx="1.5" fill="#ef4444" fill-opacity="0.85"/><rect x="588" y="419" width="5" height="18" rx="1.5" fill="#ef4444" fill-opacity="0.85"/><text x="614" y="433" font-size="11.5" fill="#ef4444" font-weight="bold" font-family="'JetBrains Mono', ui-monospace, SFMono-Regular, Menlo, Consolas, monospace">offline</text><text x="724" y="433" font-size="11" fill="#486169" font-weight="normal" font-family="'JetBrains Mono', ui-monospace, SFMono-Regular, Menlo, Consolas, monospace" text-anchor="end">—</text><g><rect x="88" y="460" width="652" height="92" rx="10" fill="#f4f8f7" stroke="#c8d6d2" stroke-width="1.5"/></g><text x="104" y="482" font-size="11.5" fill="#0a2229" font-weight="bold" font-family="'Inter', system-ui, -apple-system, 'Segoe UI', Arial, sans-serif">Beszel — system metrics</text><text x="104" y="508" font-size="11" fill="#486169" font-weight="normal" font-family="'JetBrains Mono', ui-monospace, SFMono-Regular, Menlo, Consolas, monospace">CPU</text><text x="224" y="508" font-size="11" fill="#0a2229" font-weight="bold" font-family="'JetBrains Mono', ui-monospace, SFMono-Regular, Menlo, Consolas, monospace" text-anchor="end">41 %</text><rect x="104" y="518" width="120" height="6" rx="3" fill="#c8d6d2"/><rect x="104" y="518" width="49" height="6" rx="3" fill="#006d77"/><text x="256" y="508" font-size="11" fill="#486169" font-weight="normal" font-family="'JetBrains Mono', ui-monospace, SFMono-Regular, Menlo, Consolas, monospace">RAM</text><text x="376" y="508" font-size="11" fill="#0a2229" font-weight="bold" font-family="'JetBrains Mono', ui-monospace, SFMono-Regular, Menlo, Consolas, monospace" text-anchor="end">68 %</text><rect x="256" y="518" width="120" height="6" rx="3" fill="#c8d6d2"/><rect x="256" y="518" width="82" height="6" rx="3" fill="#006d77"/><text x="408" y="508" font-size="11" fill="#486169" font-weight="normal" font-family="'JetBrains Mono', ui-monospace, SFMono-Regular, Menlo, Consolas, monospace">Disk</text><text x="528" y="508" font-size="11" fill="#0a2229" font-weight="bold" font-family="'JetBrains Mono', ui-monospace, SFMono-Regular, Menlo, Consolas, monospace" text-anchor="end">58 %</text><rect x="408" y="518" width="120" height="6" rx="3" fill="#c8d6d2"/><rect x="408" y="518" width="70" height="6" rx="3" fill="#006d77"/><text x="560" y="508" font-size="11" fill="#486169" font-weight="normal" font-family="'JetBrains Mono', ui-monospace, SFMono-Regular, Menlo, Consolas, monospace">Temp</text><text x="680" y="508" font-size="11" fill="#0a2229" font-weight="bold" font-family="'JetBrains Mono', ui-monospace, SFMono-Regular, Menlo, Consolas, monospace" text-anchor="end">54 °C</text><rect x="560" y="518" width="120" height="6" rx="3" fill="#c8d6d2"/><rect x="560" y="518" width="65" height="6" rx="3" fill="#006d77"/><text x="88" y="574" font-size="11" fill="#486169" fill-opacity="0.85" font-weight="normal" font-family="'JetBrains Mono', ui-monospace, SFMono-Regular, Menlo, Consolas, monospace">Docker socket · ~15 checks · external watchdog (UptimeRobot)</text><g filter="url(#monitoring-light-en-sh)"><rect x="792" y="84" width="344" height="200" rx="16" fill="#ffffff" stroke="#c8d6d2" stroke-width="1.5"/></g><path d="M792 98 a14 14 0 0 1 14 -14 h316 a14 14 0 0 1 14 14 v22 h-344 z" fill="#0a2229"/><circle cx="814" cy="102" r="5" fill="#006d77"/><circle cx="828" cy="102" r="5" fill="#006d77" fill-opacity="0.55"/><circle cx="842" cy="102" r="5" fill="#eef3f2" fill-opacity="0.5"/><text x="964" y="106" font-size="12.5" fill="#eef3f2" fill-opacity="0.85" font-weight="normal" font-family="'JetBrains Mono', ui-monospace, SFMono-Regular, Menlo, Consolas, monospace" text-anchor="middle">dockge — stacks</text><g><rect x="812" y="136" width="304" height="40" rx="8" fill="#f4f8f7" stroke="#c8d6d2" stroke-width="1.5"/></g><rect x="826" y="149" width="14" height="14" rx="3" fill="#006d77" fill-opacity="0.2" stroke="#006d77" stroke-opacity="0.5"/><text x="850" y="161" font-size="12.5" fill="#0a2229" font-weight="bold" font-family="'Inter', system-ui, -apple-system, 'Segoe UI', Arial, sans-serif">portfolio</text><circle cx="1040" cy="156" r="4" fill="#22c55e"/><text x="1052" y="160" font-size="11" fill="#22c55e" font-weight="normal" font-family="'JetBrains Mono', ui-monospace, SFMono-Regular, Menlo, Consolas, monospace">running</text><text x="1108" y="160" font-size="11" fill="#486169" font-weight="normal" font-family="'JetBrains Mono', ui-monospace, SFMono-Regular, Menlo, Consolas, monospace" text-anchor="end">×5</text><g><rect x="812" y="184" width="304" height="40" rx="8" fill="#f4f8f7" stroke="#c8d6d2" stroke-width="1.5"/></g><rect x="826" y="197" width="14" height="14" rx="3" fill="#006d77" fill-opacity="0.2" stroke="#006d77" stroke-opacity="0.5"/><text x="850" y="209" font-size="12.5" fill="#0a2229" font-weight="bold" font-family="'Inter', system-ui, -apple-system, 'Segoe UI', Arial, sans-serif">monitoring</text><circle cx="1040" cy="204" r="4" fill="#22c55e"/><text x="1052" y="208" font-size="11" fill="#22c55e" font-weight="normal" font-family="'JetBrains Mono', ui-monospace, SFMono-Regular, Menlo, Consolas, monospace">running</text><text x="1108" y="208" font-size="11" fill="#486169" font-weight="normal" font-family="'JetBrains Mono', ui-monospace, SFMono-Regular, Menlo, Consolas, monospace" text-anchor="end">×2</text><g><rect x="812" y="232" width="304" height="40" rx="8" fill="#f4f8f7" stroke="#c8d6d2" stroke-width="1.5"/></g><rect x="826" y="245" width="14" height="14" rx="3" fill="#006d77" fill-opacity="0.2" stroke="#006d77" stroke-opacity="0.5"/><text x="850" y="257" font-size="12.5" fill="#0a2229" font-weight="bold" font-family="'Inter', system-ui, -apple-system, 'Segoe UI', Arial, sans-serif">games</text><circle cx="1040" cy="252" r="4" fill="#22c55e"/><text x="1052" y="256" font-size="11" fill="#22c55e" font-weight="normal" font-family="'JetBrains Mono', ui-monospace, SFMono-Regular, Menlo, Consolas, monospace">running</text><text x="1108" y="256" font-size="11" fill="#486169" font-weight="normal" font-family="'JetBrains Mono', ui-monospace, SFMono-Regular, Menlo, Consolas, monospace" text-anchor="end">×3</text><g filter="url(#monitoring-light-en-sh)"><rect x="792" y="308" width="344" height="288" rx="16" fill="#ffffff" stroke="#c8d6d2" stroke-width="1.5"/></g><rect x="812" y="328" width="40" height="40" rx="10" fill="#006d77"/><path d="M832 338 a9 9 0 0 1 9 9 v5 l2 3 h-22 l2 -3 v-5 a9 9 0 0 1 9 -9 z" fill="#ffffff"/><circle cx="832" cy="360" r="2.5" fill="#ffffff"/><text x="864" y="345" font-size="14" fill="#0a2229" font-weight="bold" font-family="'Inter', system-ui, -apple-system, 'Segoe UI', Arial, sans-serif">ntfy</text><text x="864" y="362" font-size="11" fill="#486169" font-weight="normal" font-family="'JetBrains Mono', ui-monospace, SFMono-Regular, Menlo, Consolas, monospace">on your phone</text><text x="1116" y="345" font-size="10" fill="#486169" font-weight="normal" font-family="'Inter', system-ui, -apple-system, 'Segoe UI', Arial, sans-serif" text-anchor="end">now</text><line x1="812" y1="382" x2="1116" y2="382" stroke="#c8d6d2"/><rect x="812" y="396" width="304" height="134" rx="10" fill="#ef4444" fill-opacity="0.08" stroke="#ef4444" stroke-opacity="0.3"/><circle cx="836" cy="424" r="5" fill="#ef4444"/><text x="850" y="429" font-size="13.5" fill="#0a2229" font-weight="bold" font-family="'Inter', system-ui, -apple-system, 'Segoe UI', Arial, sans-serif">wireguard</text><rect x="1040" y="414" width="66" height="22" rx="6" fill="#ef4444"/><text x="1073" y="429" font-size="11" fill="#ffffff" font-weight="bold" font-family="'JetBrains Mono', ui-monospace, SFMono-Regular, Menlo, Consolas, monospace" text-anchor="middle">DOWN</text><text x="832" y="458" font-size="12" fill="#486169" font-weight="normal" font-family="'Inter', system-ui, -apple-system, 'Segoe UI', Arial, sans-serif">Container is not responding</text><text x="832" y="480" font-size="10.5" fill="#486169" font-weight="normal" font-family="'JetBrains Mono', ui-monospace, SFMono-Regular, Menlo, Consolas, monospace">“Docker” probe · failing 60 s</text><rect x="832" y="496" width="128" height="22" rx="5" fill="#ef4444" fill-opacity="0.12" stroke="#ef4444" stroke-opacity="0.32"/><text x="846" y="511" font-size="11" fill="#ef4444" font-weight="normal" font-family="'JetBrains Mono', ui-monospace, SFMono-Regular, Menlo, Consolas, monospace">urgent priority</text><text x="812" y="560" font-size="10.5" fill="#486169" fill-opacity="0.85" font-weight="normal" font-family="'JetBrains Mono', ui-monospace, SFMono-Regular, Menlo, Consolas, monospace">APNs relay → push even when app closed</text>
</svg>