<svg width="1200" height="675" viewBox="0 0 1200 675" xmlns="http://www.w3.org/2000/svg" font-family="Arial, Helvetica, sans-serif">
  <defs>
    <pattern id="dots" width="28" height="28" patternUnits="userSpaceOnUse"><circle cx="2" cy="2" r="1.4" fill="#d6d9e0" /></pattern>
    <filter id="sh" x="-20%" y="-20%" width="140%" height="160%"><feDropShadow dx="0" dy="7" stdDeviation="11" flood-color="#1f2430" flood-opacity="0.16" /></filter>
    <marker id="arrow" markerWidth="9" markerHeight="9" refX="7" refY="4.5" orient="auto"><path d="M0 0 L9 4.5 L0 9 z" fill="#94a3b8" /></marker>
  </defs>
  <rect width="1200" height="675" fill="#eaebee" /><rect width="1200" height="675" fill="url(#dots)" />

  <!-- ===== DESKTOP ===== -->
  <text x="48" y="56" font-size="14" fill="#6b7280">Portfolio — React · TypeScript · Vite · Tailwind</text>
  <g filter="url(#sh)"><rect x="48" y="66" width="556" height="322" rx="12" fill="#0d1418" stroke="#1f2a30" /></g>
  <text x="70" y="100" font-size="14" font-weight="bold"><tspan fill="#5b6b72">// </tspan><tspan fill="#2dd4bf">alexis.wallez</tspan></text>
  <circle cx="196" cy="95" r="4" fill="#22c55e" />
  <text x="584" y="99" font-size="10" fill="#8b98a5" text-anchor="end">Compétences · Projets · Services · Contact</text>
  <line x1="48" y1="116" x2="604" y2="116" stroke="#1f2a30" />
  <rect x="70" y="130" width="512" height="182" rx="10" fill="#121c20" stroke="#1f2a30" />
  <circle cx="90" cy="150" r="4" fill="#f87171" /><circle cx="104" cy="150" r="4" fill="#fbbf24" /><circle cx="118" cy="150" r="4" fill="#34d399" />
  <g font-family="Consolas, monospace" font-size="13.5">
    <text x="90" y="186"><tspan fill="#2dd4bf">$ </tspan><tspan fill="#e6edf3">whoami</tspan></text>
    <text x="90" y="206" fill="#8b98a5">Alexis Wallez — Full-Stack &amp; DevOps</text>
    <text x="90" y="234"><tspan fill="#2dd4bf">$ </tspan><tspan fill="#e6edf3">cat stack.txt</tspan></text>
    <text x="90" y="254" fill="#8b98a5">React · TypeScript · Node · Fastify · PostgreSQL</text>
    <text x="90" y="282"><tspan fill="#2dd4bf">$ </tspan><tspan fill="#e6edf3">./deploy.sh → Docker · NAS</tspan></text>
  </g>
  <text x="70" y="344" font-size="11.5" fill="#5b6b72">Accessibilité · SEO · i18n FR/EN · tests · CI/CD</text>
  <text x="70" y="368" font-size="11.5" fill="#8b98a5">Full-stack, du front au déploiement — pensé DevOps.</text>

  <!-- ===== MOBILE ===== -->
  <text x="620" y="76" font-size="14" fill="#6b7280">Responsive</text>
  <g filter="url(#sh)"><rect x="620" y="86" width="160" height="302" rx="20" fill="#0d1418" stroke="#1f2a30" /></g>
  <rect x="678" y="100" width="44" height="6" rx="3" fill="#1f2a30" />
  <text x="638" y="134" font-size="11" font-weight="bold"><tspan fill="#5b6b72">// </tspan><tspan fill="#2dd4bf">alexis.w</tspan></text>
  <circle cx="712" cy="129" r="3.5" fill="#22c55e" />
  <rect x="636" y="148" width="128" height="108" rx="8" fill="#121c20" stroke="#1f2a30" />
  <g font-family="Consolas, monospace" font-size="10">
    <text x="648" y="172"><tspan fill="#2dd4bf">$ </tspan><tspan fill="#e6edf3">whoami</tspan></text>
    <text x="648" y="189" fill="#8b98a5">Full-Stack</text>
    <text x="648" y="204" fill="#8b98a5">&amp; DevOps</text>
    <text x="648" y="228"><tspan fill="#2dd4bf">$ </tspan><tspan fill="#e6edf3">ls skills/</tspan></text>
    <text x="648" y="244" fill="#8b98a5">Docker · Linux</text>
  </g>
  <rect x="636" y="338" width="128" height="34" rx="9" fill="#2dd4bf" />
  <text x="700" y="360" font-size="11" font-weight="bold" fill="#0d1418" text-anchor="middle">→ Contact</text>

  <!-- ===== GitHub ===== -->
  <text x="800" y="76" font-size="14" fill="#6b7280">Open source</text>
  <g filter="url(#sh)"><rect x="800" y="86" width="352" height="128" rx="12" fill="#ffffff" stroke="#d4d9e2" /></g>
  <path transform="translate(822 108)" d="M12 .297c-6.63 0-12 5.373-12 12 0 5.303 3.438 9.8 8.205 11.385.6.113.82-.258.82-.577 0-.285-.01-1.04-.015-2.04-3.338.724-4.042-1.61-4.042-1.61C4.422 18.07 3.633 17.7 3.633 17.7c-1.087-.744.084-.729.084-.729 1.205.084 1.838 1.236 1.838 1.236 1.07 1.835 2.809 1.305 3.495.998.108-.776.417-1.305.76-1.605-2.665-.3-5.466-1.332-5.466-5.93 0-1.31.465-2.38 1.235-3.22-.135-.303-.54-1.523.105-3.176 0 0 1.005-.322 3.3 1.23.96-.267 1.98-.399 3-.405 1.02.006 2.04.138 3 .405 2.28-1.552 3.285-1.23 3.285-1.23.645 1.653.24 2.873.12 3.176.765.84 1.23 1.91 1.23 3.22 0 4.61-2.805 5.625-5.475 5.92.42.36.81 1.096.81 2.22 0 1.606-.015 2.896-.015 3.286 0 .315.21.69.825.57C20.565 22.092 24 17.592 24 12.297c0-6.627-5.373-12-12-12" fill="#1f2937" />
  <text x="860" y="120" font-size="15" font-weight="bold" fill="#1f2937">GitHub — open source</text>
  <text x="860" y="140" font-size="12" fill="#8a90a0">AWallez / portfolio</text>
  <circle cx="824" cy="172" r="4" fill="#16a34a" /><text x="836" y="176" font-size="12" fill="#16a34a">Public · CI passing</text>
  <text x="824" y="200" font-size="11" fill="#8a90a0">React · TS · Fastify · PostgreSQL · Docker</text>

  <!-- ===== Stack / qualité ===== -->
  <g filter="url(#sh)"><rect x="800" y="234" width="352" height="154" rx="12" fill="#ffffff" stroke="#d4d9e2" /></g>
  <text x="820" y="262" font-size="13" font-weight="bold" fill="#1f2937">Soigné</text>
  <g font-size="11.5">
    <rect x="820" y="276" width="120" height="24" rx="6" fill="#ecfdf5" stroke="#a7f3d0" /><text x="880" y="292" fill="#0f766e" text-anchor="middle">Accessibilité</text>
    <rect x="950" y="276" width="64" height="24" rx="6" fill="#ecfdf5" stroke="#a7f3d0" /><text x="982" y="292" fill="#0f766e" text-anchor="middle">SEO</text>
    <rect x="1024" y="276" width="110" height="24" rx="6" fill="#ecfdf5" stroke="#a7f3d0" /><text x="1079" y="292" fill="#0f766e" text-anchor="middle">i18n FR/EN</text>
    <rect x="820" y="308" width="92" height="24" rx="6" fill="#ecfdf5" stroke="#a7f3d0" /><text x="866" y="324" fill="#0f766e" text-anchor="middle">Responsive</text>
    <rect x="922" y="308" width="100" height="24" rx="6" fill="#ecfdf5" stroke="#a7f3d0" /><text x="972" y="324" fill="#0f766e" text-anchor="middle">Tests Vitest</text>
    <rect x="1032" y="308" width="102" height="24" rx="6" fill="#ecfdf5" stroke="#a7f3d0" /><text x="1083" y="324" fill="#0f766e" text-anchor="middle">CI/CD Actions</text>
    <rect x="820" y="340" width="150" height="24" rx="6" fill="#ecfdf5" stroke="#a7f3d0" /><text x="895" y="356" fill="#0f766e" text-anchor="middle">Thème clair / sombre</text>
    <rect x="980" y="340" width="120" height="24" rx="6" fill="#ecfdf5" stroke="#a7f3d0" /><text x="1040" y="356" fill="#0f766e" text-anchor="middle">Conteneurisé</text>
  </g>

  <!-- ===== FLUX : formulaire → API → ntfy ===== -->
  <text x="48" y="412" font-size="14" fill="#6b7280">Formulaire de contact → API → notification push (ntfy)</text>

  <!-- carte formulaire -->
  <g filter="url(#sh)"><rect x="48" y="424" width="372" height="214" rx="12" fill="#ffffff" stroke="#d4d9e2" /></g>
  <text x="66" y="452" font-size="13" font-weight="bold" fill="#1f2937">Contactez-nous</text>
  <rect x="66" y="462" width="166" height="28" rx="7" fill="#f7f8fa" stroke="#e8eaef" /><text x="78" y="480" font-size="10" fill="#aab0bd">Prénom</text>
  <rect x="240" y="462" width="164" height="28" rx="7" fill="#f7f8fa" stroke="#e8eaef" /><text x="252" y="480" font-size="10" fill="#aab0bd">Nom</text>
  <rect x="66" y="498" width="338" height="28" rx="7" fill="#f7f8fa" stroke="#e8eaef" /><text x="78" y="516" font-size="10" fill="#aab0bd">Email</text>
  <rect x="66" y="534" width="166" height="28" rx="7" fill="#f7f8fa" stroke="#e8eaef" /><text x="78" y="552" font-size="10" fill="#aab0bd">Type de demande</text>
  <rect x="240" y="534" width="164" height="28" rx="7" fill="#f7f8fa" stroke="#e8eaef" /><text x="252" y="552" font-size="10" fill="#aab0bd">Téléphone</text>
  <rect x="66" y="570" width="338" height="22" rx="7" fill="#f7f8fa" stroke="#e8eaef" /><text x="78" y="585" font-size="10" fill="#aab0bd">Message…</text>
  <rect x="66" y="600" width="338" height="26" rx="8" fill="#0f766e" /><text x="235" y="618" font-size="11" font-weight="bold" fill="#ffffff" text-anchor="middle">→ Envoyer</text>

  <!-- flèche 1 + API -->
  <line x1="424" y1="500" x2="482" y2="500" stroke="#94a3b8" stroke-width="2" marker-end="url(#arrow)" />
  <text x="453" y="492" font-size="10" fill="#64748b" text-anchor="middle">POST</text>
  <g filter="url(#sh)"><rect x="488" y="470" width="168" height="76" rx="12" fill="#0d1418" stroke="#1f2a30" /></g>
  <circle cx="510" cy="500" r="6" fill="#2dd4bf" /><text x="524" y="497" font-size="13" font-weight="bold" fill="#e6edf3">API Fastify</text>
  <text x="506" y="524" font-size="11" font-family="Consolas, monospace" fill="#8b98a5">/api/contact</text>
  <text x="506" y="540" font-size="10" fill="#8b98a5">PostgreSQL · validation</text>

  <!-- flèche 2 + ntfy -->
  <line x1="656" y1="508" x2="712" y2="520" stroke="#94a3b8" stroke-width="2" marker-end="url(#arrow)" />
  <text x="684" y="500" font-size="10" fill="#64748b" text-anchor="middle">publish</text>

  <!-- notif ntfy -->
  <text x="718" y="452" font-size="14" fill="#6b7280">Notification push</text>
  <g filter="url(#sh)"><rect x="718" y="462" width="434" height="156" rx="14" fill="#ffffff" stroke="#d4d9e2" /></g>
  <!-- en-tête ntfy -->
  <rect x="738" y="482" width="40" height="40" rx="10" fill="#2dd4bf" />
  <path d="M758 492 a9 9 0 0 1 9 9 v5 l2 3 h-22 l2 -3 v-5 a9 9 0 0 1 9 -9 z" fill="#0d1418" /><circle cx="758" cy="514" r="2.5" fill="#0d1418" />
  <text x="790" y="498" font-size="13" font-weight="bold" fill="#1f2937">ntfy</text>
  <text x="790" y="515" font-size="10.5" fill="#8a90a0">sur ton téléphone</text>
  <text x="1134" y="498" font-size="10" fill="#aab0bd" text-anchor="end">maintenant</text>
  <line x1="738" y1="536" x2="1132" y2="536" stroke="#eef0f3" />
  <text x="738" y="560" font-size="13" font-weight="bold" fill="#1f2937">Nouveau message — Marie Dupont</text>
  <text x="738" y="580" font-size="11" fill="#8a90a0">marie@exemple.fr · Projet freelance</text>
  <text x="738" y="600" font-size="11" fill="#5a606e">« Bonjour, j'aimerais un devis pour la refonte de mon site… »</text>

  <!-- cue Figma -->
  <g transform="translate(596 360)"><path d="M0 0 L0 18 L5 14 L8 21 L11 19 L8 12 L14 12 Z" fill="#1f2430" stroke="#ffffff" stroke-width="1" /></g>
</svg>
