<svg width="1200" height="675" viewBox="0 0 1200 675" xmlns="http://www.w3.org/2000/svg" font-family="Arial, Helvetica, sans-serif">
  <defs>
    <pattern id="dots" width="28" height="28" patternUnits="userSpaceOnUse">
      <circle cx="2" cy="2" r="1.4" fill="#d6d9e0" />
    </pattern>
    <filter id="sh" x="-20%" y="-20%" width="140%" height="160%">
      <feDropShadow dx="0" dy="7" stdDeviation="11" flood-color="#1f2430" flood-opacity="0.12" />
    </filter>
    <linearGradient id="wood" x1="0" y1="0" x2="1" y2="1">
      <stop offset="0" stop-color="#c2823f" /><stop offset="1" stop-color="#7c4a1e" />
    </linearGradient>
    <linearGradient id="wood2" x1="0" y1="0" x2="1" y2="1">
      <stop offset="0" stop-color="#d9a566" /><stop offset="1" stop-color="#8a5a2b" />
    </linearGradient>
  </defs>

  <rect width="1200" height="675" fill="#eaebee" />
  <rect width="1200" height="675" fill="url(#dots)" />

  <!-- ============ FRAME 1 : SITE VITRINE ============ -->
  <text x="48" y="56" font-size="14" fill="#6b7280">Site vitrine — artisan / indépendant</text>
  <g filter="url(#sh)"><rect x="48" y="66" width="624" height="300" rx="12" fill="#ffffff" stroke="#e2e4e9" /></g>
  <circle cx="68" cy="83" r="4" fill="#f87171" /><circle cx="82" cy="83" r="4" fill="#fbbf24" /><circle cx="96" cy="83" r="4" fill="#34d399" />
  <rect x="118" y="75" width="220" height="16" rx="8" fill="#f1f3f6" />
  <text x="130" y="87" font-size="10" fill="#8a90a0">menuiserie-dupont.fr</text>
  <line x1="48" y1="100" x2="672" y2="100" stroke="#eef0f3" />
  <rect x="66" y="116" width="14" height="14" rx="3" fill="#b45309" />
  <text x="86" y="128" font-size="13" font-weight="bold" fill="#3f2d1a">Menuiserie Dupont</text>
  <text x="386" y="128" font-size="11" fill="#6b7280">Accueil</text>
  <text x="442" y="128" font-size="11" fill="#6b7280">Réalisations</text>
  <text x="520" y="128" font-size="11" fill="#6b7280">Services</text>
  <rect x="584" y="116" width="70" height="22" rx="11" fill="#b45309" />
  <text x="619" y="131" font-size="10" font-weight="bold" fill="#ffffff" text-anchor="middle">Devis</text>
  <text x="66" y="186" font-size="24" font-weight="bold" fill="#2a1d10">L'artisan du bois,</text>
  <text x="66" y="216" font-size="24" font-weight="bold" fill="#b45309">sur mesure.</text>
  <text x="66" y="242" font-size="12" fill="#6b6356">Création &amp; rénovation de mobilier et</text>
  <text x="66" y="259" font-size="12" fill="#6b6356">d'agencements pour particuliers &amp; pros.</text>
  <rect x="66" y="276" width="168" height="38" rx="9" fill="#b45309" />
  <text x="150" y="300" font-size="12.5" font-weight="bold" fill="#ffffff" text-anchor="middle">Demander un devis</text>
  <rect x="394" y="156" width="256" height="158" rx="10" fill="url(#wood)" />
  <circle cx="447" cy="202" r="13" fill="#ffffff" opacity="0.5" />
  <path d="M414 290 L470 238 L506 270 L548 228 L620 300 L414 300 Z" fill="#ffffff" opacity="0.45" />
  <text x="66" y="342" font-size="11" fill="#8a7a63">▸ Agencement</text>
  <text x="206" y="342" font-size="11" fill="#8a7a63">▸ Mobilier sur mesure</text>
  <text x="392" y="342" font-size="11" fill="#8a7a63">▸ Rénovation</text>

  <!-- ============ FRAME 2 : APPLICATION SUR MESURE (descendue pour aérer le titre) ============ -->
  <text x="48" y="400" font-size="14" fill="#6b7280">Application web sur mesure — gestion</text>
  <g filter="url(#sh)"><rect x="48" y="410" width="624" height="228" rx="12" fill="#ffffff" stroke="#e2e4e9" /></g>
  <circle cx="68" cy="430" r="6" fill="#b45309" />
  <text x="82" y="435" font-size="12" font-weight="bold" fill="#1f2430">StockApp</text>
  <line x1="48" y1="446" x2="672" y2="446" stroke="#eef0f3" />
  <rect x="48" y="446" width="120" height="192" fill="#faf7f3" />
  <rect x="58" y="458" width="100" height="26" rx="6" fill="#f6ecdf" />
  <text x="70" y="475" font-size="10.5" font-weight="bold" fill="#b45309">Dashboard</text>
  <text x="70" y="508" font-size="10.5" fill="#8a90a0">Clients (CRM)</text>
  <text x="70" y="536" font-size="10.5" fill="#8a90a0">Stock</text>
  <text x="70" y="564" font-size="10.5" fill="#8a90a0">Réservations</text>
  <text x="70" y="592" font-size="10.5" fill="#8a90a0">Statistiques</text>
  <rect x="184" y="462" width="146" height="64" rx="8" fill="#ffffff" stroke="#e8eaef" />
  <text x="196" y="484" font-size="10" fill="#8a90a0">Chiffre d'affaires</text>
  <text x="196" y="510" font-size="17" font-weight="bold" fill="#1f2430">8 240 €</text>
  <rect x="342" y="462" width="146" height="64" rx="8" fill="#ffffff" stroke="#e8eaef" />
  <text x="354" y="484" font-size="10" fill="#8a90a0">Commandes</text>
  <text x="354" y="510" font-size="17" font-weight="bold" fill="#1f2430">32</text>
  <rect x="500" y="462" width="150" height="64" rx="8" fill="#ffffff" stroke="#e8eaef" />
  <text x="512" y="484" font-size="10" fill="#8a90a0">Articles en stock</text>
  <text x="512" y="510" font-size="17" font-weight="bold" fill="#1f2430">1 320</text>
  <rect x="184" y="540" width="300" height="86" rx="8" fill="#ffffff" stroke="#e8eaef" />
  <g fill="#b45309">
    <rect x="202" y="592" width="20" height="24" rx="2" /><rect x="232" y="576" width="20" height="40" rx="2" /><rect x="262" y="600" width="20" height="16" rx="2" /><rect x="292" y="568" width="20" height="48" rx="2" /><rect x="322" y="586" width="20" height="30" rx="2" /><rect x="352" y="560" width="20" height="56" rx="2" /><rect x="382" y="594" width="20" height="22" rx="2" /><rect x="412" y="580" width="20" height="36" rx="2" /><rect x="442" y="598" width="20" height="18" rx="2" />
  </g>
  <rect x="500" y="540" width="150" height="86" rx="8" fill="#ffffff" stroke="#e8eaef" />
  <circle cx="516" cy="564" r="8" fill="#f6ecdf" /><text x="532" y="568" font-size="10.5" fill="#5a606e">Marie Lefèvre</text>
  <circle cx="516" cy="590" r="8" fill="#f6ecdf" /><text x="532" y="594" font-size="10.5" fill="#5a606e">Thomas Roche</text>
  <circle cx="516" cy="616" r="8" fill="#f6ecdf" /><text x="532" y="620" font-size="10.5" fill="#5a606e">Léa Hubert</text>

  <!-- ============ FRAME 3 : MOBILE (vitrine responsive) ============ -->
  <text x="700" y="56" font-size="14" fill="#6b7280">Mobile · Responsive</text>
  <g filter="url(#sh)"><rect x="700" y="66" width="190" height="360" rx="24" fill="#ffffff" stroke="#e2e4e9" /></g>
  <rect x="770" y="82" width="40" height="6" rx="3" fill="#d8dadf" />
  <g stroke="#3f2d1a" stroke-width="2"><line x1="716" y1="108" x2="730" y2="108" /><line x1="716" y1="114" x2="730" y2="114" /><line x1="716" y1="120" x2="730" y2="120" /></g>
  <text x="745" y="118" font-size="11" font-weight="bold" fill="#3f2d1a">Menuiserie Dupont</text>
  <rect x="716" y="134" width="158" height="104" rx="10" fill="url(#wood2)" />
  <circle cx="752" cy="168" r="9" fill="#ffffff" opacity="0.5" />
  <text x="716" y="268" font-size="15" font-weight="bold" fill="#2a1d10">L'artisan du</text>
  <text x="716" y="288" font-size="15" font-weight="bold" fill="#b45309">bois sur mesure</text>
  <text x="716" y="310" font-size="10" fill="#6b6356">Mobilier &amp; agencements</text>
  <rect x="716" y="328" width="158" height="36" rx="9" fill="#b45309" />
  <text x="795" y="351" font-size="12" font-weight="bold" fill="#ffffff" text-anchor="middle">Demander un devis</text>
  <rect x="716" y="380" width="74" height="30" rx="7" fill="#f6efe6" />
  <rect x="800" y="380" width="74" height="30" rx="7" fill="#f6efe6" />

  <!-- ============ FRAME 4 : RÉSERVATIONS ============ -->
  <text x="912" y="56" font-size="14" fill="#6b7280">Module Réservations</text>
  <g filter="url(#sh)"><rect x="912" y="66" width="240" height="360" rx="14" fill="#ffffff" stroke="#e2e4e9" /></g>
  <text x="930" y="102" font-size="14" font-weight="bold" fill="#1f2430">Réservations</text>
  <text x="1136" y="102" font-size="10" fill="#8a90a0" text-anchor="end">Juin 2026</text>
  <g>
    <rect x="928" y="114" width="208" height="44" rx="8" fill="#f7f8fa" /><rect x="928" y="114" width="4" height="44" rx="2" fill="#b45309" />
    <text x="944" y="134" font-size="11" font-weight="bold" fill="#1f2430">Lun. 09:00</text><text x="944" y="149" font-size="10" fill="#8a90a0">M. Dupont · Devis cuisine</text>
    <rect x="928" y="164" width="208" height="44" rx="8" fill="#f7f8fa" /><rect x="928" y="164" width="4" height="44" rx="2" fill="#b45309" />
    <text x="944" y="184" font-size="11" font-weight="bold" fill="#1f2430">Mar. 14:00</text><text x="944" y="199" font-size="10" fill="#8a90a0">Mme Martin · Pose dressing</text>
    <rect x="928" y="214" width="208" height="44" rx="8" fill="#f7f8fa" /><rect x="928" y="214" width="4" height="44" rx="2" fill="#b45309" />
    <text x="944" y="234" font-size="11" font-weight="bold" fill="#1f2430">Mer. 11:30</text><text x="944" y="249" font-size="10" fill="#8a90a0">M. Bernard · Métré</text>
    <rect x="928" y="264" width="208" height="44" rx="8" fill="#f7f8fa" /><rect x="928" y="264" width="4" height="44" rx="2" fill="#b45309" />
    <text x="944" y="284" font-size="11" font-weight="bold" fill="#1f2430">Jeu. 16:15</text><text x="944" y="299" font-size="10" fill="#8a90a0">Mme Roche · Livraison</text>
    <rect x="928" y="314" width="208" height="44" rx="8" fill="#f7f8fa" /><rect x="928" y="314" width="4" height="44" rx="2" fill="#b45309" />
    <text x="944" y="334" font-size="11" font-weight="bold" fill="#1f2430">Ven. 10:00</text><text x="944" y="349" font-size="10" fill="#8a90a0">M. Hubert · Devis terrasse</text>
  </g>
  <rect x="928" y="376" width="208" height="38" rx="9" fill="#b45309" />
  <text x="1032" y="400" font-size="12.5" font-weight="bold" fill="#ffffff" text-anchor="middle">+ Nouvelle réservation</text>

  <!-- ============ FRAME 5 : FORMULAIRE DE CONTACT (descendu pour aérer le titre) ============ -->
  <text x="700" y="456" font-size="14" fill="#6b7280">Formulaire de contact</text>
  <g filter="url(#sh)"><rect x="700" y="466" width="452" height="172" rx="12" fill="#ffffff" stroke="#e2e4e9" /></g>
  <text x="718" y="494" font-size="13" font-weight="bold" fill="#1f2430">Contactez-nous</text>
  <rect x="718" y="506" width="205" height="30" rx="7" fill="#f7f8fa" stroke="#e8eaef" /><text x="730" y="525" font-size="10" fill="#aab0bd">Nom</text>
  <rect x="935" y="506" width="205" height="30" rx="7" fill="#f7f8fa" stroke="#e8eaef" /><text x="947" y="525" font-size="10" fill="#aab0bd">Email</text>
  <rect x="718" y="544" width="422" height="40" rx="7" fill="#f7f8fa" stroke="#e8eaef" /><text x="730" y="564" font-size="10" fill="#aab0bd">Votre message…</text>
  <rect x="718" y="594" width="422" height="32" rx="8" fill="#b45309" /><text x="929" y="615" font-size="12" font-weight="bold" fill="#ffffff" text-anchor="middle">Envoyer</text>

  <!-- ============ cues Figma légers ============ -->
  <rect x="46" y="64" width="628" height="304" rx="13" fill="none" stroke="#0d99ff" stroke-width="1.5" />
  <g fill="#ffffff" stroke="#0d99ff" stroke-width="1.5">
    <rect x="42.5" y="60.5" width="7" height="7" /><rect x="670.5" y="60.5" width="7" height="7" /><rect x="42.5" y="364.5" width="7" height="7" /><rect x="670.5" y="364.5" width="7" height="7" />
  </g>
  <rect x="312" y="372" width="96" height="18" rx="4" fill="#0d99ff" /><text x="360" y="385" font-size="10" fill="#ffffff" text-anchor="middle">624 × 300</text>
  <g transform="translate(636 330)"><path d="M0 0 L0 18 L5 14 L8 21 L11 19 L8 12 L14 12 Z" fill="#1f2430" stroke="#ffffff" stroke-width="1" /></g>
</svg>
