<svg width="1200" height="675" viewBox="0 0 1200 675" xmlns="http://www.w3.org/2000/svg" font-family="Arial, Helvetica, sans-serif">
  <defs>
    <pattern id="dots" width="28" height="28" patternUnits="userSpaceOnUse"><circle cx="2" cy="2" r="1.4" fill="#d3d8e0" /></pattern>
    <filter id="sh" x="-20%" y="-20%" width="140%" height="160%"><feDropShadow dx="0" dy="6" stdDeviation="10" flood-color="#1f2937" flood-opacity="0.12" /></filter>
  </defs>
  <rect width="1200" height="675" fill="#eef1f5" /><rect width="1200" height="675" fill="url(#dots)" />
  <text x="60" y="64" font-size="15" fill="#6b7280" font-weight="bold">Homelab — NAS Linux / Docker</text>

  <!-- liaisons -->
  <g stroke="#aab2c0" stroke-width="2" fill="none">
    <path d="M150 196 L150 300" />
    <path d="M236 336 L380 336" />
    <path d="M822 250 L928 192" />
    <path d="M822 320 L928 292" />
    <path d="M822 392 L928 392" />
  </g>
  <path d="M601 558 L601 610 L1013 610 L1013 538" stroke="#14b8a6" stroke-width="2.5" stroke-dasharray="7 6" fill="none" />
  <rect x="690" y="598" width="170" height="24" rx="12" fill="#ccfbf1" /><text x="775" y="614" font-size="12" fill="#0f766e" text-anchor="middle" font-weight="bold">WireGuard VPN</text>

  <!-- Internet -->
  <g filter="url(#sh)"><rect x="80" y="138" width="150" height="64" rx="12" fill="#ffffff" stroke="#d4d9e2" /></g>
  <circle cx="112" cy="170" r="14" fill="none" stroke="#0f766e" stroke-width="2" /><ellipse cx="112" cy="170" rx="6" ry="14" fill="none" stroke="#0f766e" stroke-width="2" /><line x1="98" y1="170" x2="126" y2="170" stroke="#0f766e" stroke-width="2" />
  <text x="138" y="175" font-size="14" font-weight="bold" fill="#1f2937">Internet</text>

  <!-- Box / routeur -->
  <g filter="url(#sh)"><rect x="80" y="300" width="150" height="72" rx="12" fill="#ffffff" stroke="#d4d9e2" /></g>
  <rect x="100" y="326" width="26" height="20" rx="3" fill="#0f766e" /><line x1="106" y1="326" x2="106" y2="314" stroke="#0f766e" stroke-width="2" /><line x1="120" y1="326" x2="120" y2="318" stroke="#0f766e" stroke-width="2" />
  <text x="138" y="332" font-size="13" font-weight="bold" fill="#1f2937">Box / Routeur</text><text x="138" y="350" font-size="11" fill="#8a90a0">pare-feu</text>

  <!-- NAS -->
  <g filter="url(#sh)"><rect x="380" y="120" width="442" height="424" rx="14" fill="#ffffff" stroke="#d4d9e2" /></g>
  <path d="M380 134 a14 14 0 0 1 14 -14 h414 a14 14 0 0 1 14 14 v30 h-442 z" fill="#1f2937" />
  <text x="400" y="150" font-size="15" font-weight="bold" fill="#ffffff">NAS UGREEN DXP480T</text>
  <rect x="724" y="130" width="82" height="22" rx="11" fill="#2496ed" /><text x="765" y="145" font-size="11" fill="#ffffff" text-anchor="middle" font-weight="bold">Docker</text>
  <text x="400" y="190" font-size="12" fill="#8a90a0" font-weight="bold">Services conteneurisés</text>

  <!-- chips services -->
  <g>
    <g filter="url(#sh)"><rect x="400" y="202" width="196" height="62" rx="10" fill="#f8fafc" stroke="#e2e6ec" /></g>
    <circle cx="422" cy="233" r="7" fill="#336791" /><text x="438" y="230" font-size="13" font-weight="bold" fill="#1f2937">PostgreSQL</text><text x="438" y="246" font-size="10" fill="#8a90a0">base de données</text>
    <g filter="url(#sh)"><rect x="606" y="202" width="196" height="62" rx="10" fill="#f8fafc" stroke="#e2e6ec" /></g>
    <circle cx="628" cy="233" r="7" fill="#16a34a" /><text x="644" y="230" font-size="13" font-weight="bold" fill="#1f2937">ntfy</text><text x="644" y="246" font-size="10" fill="#8a90a0">notifications push</text>
    <g filter="url(#sh)"><rect x="400" y="278" width="196" height="62" rx="10" fill="#f8fafc" stroke="#e2e6ec" /></g>
    <circle cx="422" cy="309" r="7" fill="#d62828" /><text x="438" y="306" font-size="13" font-weight="bold" fill="#1f2937">WireGuard</text><text x="438" y="322" font-size="10" fill="#8a90a0">VPN auto-hébergé</text>
    <g filter="url(#sh)"><rect x="606" y="278" width="196" height="62" rx="10" fill="#f8fafc" stroke="#e2e6ec" /></g>
    <circle cx="628" cy="309" r="7" fill="#7c3aed" /><text x="644" y="306" font-size="13" font-weight="bold" fill="#1f2937">Serveurs de jeux</text><text x="644" y="322" font-size="10" fill="#8a90a0">multijoueurs</text>
    <g filter="url(#sh)"><rect x="400" y="354" width="196" height="62" rx="10" fill="#f8fafc" stroke="#e2e6ec" /></g>
    <circle cx="422" cy="385" r="7" fill="#0891b2" /><text x="438" y="382" font-size="13" font-weight="bold" fill="#1f2937">Stockage RAID</text><text x="438" y="398" font-size="10" fill="#8a90a0">données &amp; sauvegardes</text>
    <g filter="url(#sh)"><rect x="606" y="354" width="196" height="62" rx="10" fill="#f8fafc" stroke="#e2e6ec" /></g>
    <circle cx="628" cy="385" r="7" fill="#009639" /><text x="644" y="382" font-size="13" font-weight="bold" fill="#1f2937">Nginx</text><text x="644" y="398" font-size="10" fill="#8a90a0">reverse proxy / HTTPS</text>
  </g>
  <text x="400" y="448" font-size="11" fill="#8a90a0">+ docker-compose · Linux · durcissement · monitoring</text>
  <rect x="400" y="462" width="402" height="64" rx="10" fill="#f1f5f9" />
  <text x="416" y="486" font-size="11" fill="#64748b">$ docker compose up -d</text>
  <circle cx="420" cy="504" r="4" fill="#16a34a" />
  <text x="432" y="508" font-size="11" fill="#16a34a">6 services en cours d'exécution</text>

  <!-- clients -->
  <g filter="url(#sh)"><rect x="928" y="160" width="184" height="64" rx="12" fill="#ffffff" stroke="#d4d9e2" /></g>
  <rect x="948" y="180" width="30" height="22" rx="3" fill="none" stroke="#0f766e" stroke-width="2" /><line x1="958" y1="208" x2="968" y2="208" stroke="#0f766e" stroke-width="2" />
  <text x="990" y="197" font-size="13" font-weight="bold" fill="#1f2937">PC / Dev</text>
  <g filter="url(#sh)"><rect x="928" y="260" width="184" height="64" rx="12" fill="#ffffff" stroke="#d4d9e2" /></g>
  <rect x="950" y="278" width="18" height="28" rx="3" fill="none" stroke="#0f766e" stroke-width="2" />
  <text x="982" y="297" font-size="13" font-weight="bold" fill="#1f2937">Mobile</text>
  <g filter="url(#sh)"><rect x="928" y="360" width="184" height="64" rx="12" fill="#ffffff" stroke="#d4d9e2" /></g>
  <rect x="948" y="378" width="30" height="20" rx="3" fill="none" stroke="#0f766e" stroke-width="2" />
  <text x="988" y="397" font-size="13" font-weight="bold" fill="#1f2937">TV / Consoles</text>
  <!-- accès distant -->
  <g filter="url(#sh)"><rect x="928" y="474" width="184" height="64" rx="12" fill="#ffffff" stroke="#14b8a6" /></g>
  <rect x="950" y="496" width="16" height="14" rx="2" fill="none" stroke="#0f766e" stroke-width="2" /><path d="M953 496 v-4 a5 5 0 0 1 10 0 v4" fill="none" stroke="#0f766e" stroke-width="2" />
  <text x="978" y="504" font-size="12.5" font-weight="bold" fill="#1f2937">Accès distant</text><text x="978" y="521" font-size="10" fill="#8a90a0">chiffré / sécurisé</text>
</svg>
