<svg width="1200" height="675" viewBox="0 0 1200 675" xmlns="http://www.w3.org/2000/svg" font-family="'Inter', system-ui, -apple-system, 'Segoe UI', Arial, sans-serif">
  <defs>
    <pattern id="homelab-light-fr-dots" width="28" height="28" patternUnits="userSpaceOnUse"><circle cx="2" cy="2" r="1.4" fill="#c8d6d2" fill-opacity="0.7"/></pattern>
    <filter id="homelab-light-fr-sh" x="-20%" y="-20%" width="140%" height="160%"><feDropShadow dx="0" dy="6" stdDeviation="11" flood-color="#0a2229" flood-opacity="0.16"/></filter>
  </defs>
  <rect width="1200" height="675" fill="#eef3f2"/>
  <rect width="1200" height="675" fill="url(#homelab-light-fr-dots)"/>
  <g stroke="#486169" stroke-opacity="0.5" stroke-width="2" fill="none">
    <path d="M150 196 L150 300"/>
    <path d="M236 336 L380 336"/>
    <path d="M822 250 L928 192"/>
    <path d="M822 320 L928 292"/>
    <path d="M822 392 L928 392"/>
  </g><path d="M601 558 L601 610 L1013 610 L1013 538" stroke="#006d77" stroke-width="2.5" stroke-dasharray="7 6" fill="none"/><rect x="690" y="598" width="170" height="24" rx="12" fill="#eef3f2"/><rect x="690" y="598" width="170" height="24" rx="12" fill="#006d77" fill-opacity="0.14" stroke="#006d77" stroke-opacity="0.32"/><text x="775" y="614" font-size="12" fill="#006d77" font-weight="bold" font-family="'JetBrains Mono', ui-monospace, SFMono-Regular, Menlo, Consolas, monospace" text-anchor="middle">WireGuard VPN</text><g filter="url(#homelab-light-fr-sh)"><rect x="80" y="138" width="150" height="64" rx="12" fill="#ffffff" stroke="#c8d6d2" stroke-width="1.5"/></g><g stroke="#006d77" stroke-width="2" fill="none"><circle cx="112" cy="170" r="14"/><ellipse cx="112" cy="170" rx="6" ry="14"/><line x1="98" y1="170" x2="126" y2="170"/></g><text x="138" y="175" font-size="14" fill="#0a2229" font-weight="bold" font-family="'Inter', system-ui, -apple-system, 'Segoe UI', Arial, sans-serif">Internet</text><g filter="url(#homelab-light-fr-sh)"><rect x="80" y="300" width="150" height="72" rx="12" fill="#ffffff" stroke="#c8d6d2" stroke-width="1.5"/></g><g stroke="#006d77" stroke-width="2" fill="none"><rect x="100" y="326" width="26" height="20" rx="3"/><line x1="106" y1="326" x2="106" y2="314"/><line x1="120" y1="326" x2="120" y2="318"/></g><text x="138" y="332" font-size="13" fill="#0a2229" font-weight="bold" font-family="'Inter', system-ui, -apple-system, 'Segoe UI', Arial, sans-serif">Routeur</text><text x="138" y="350" font-size="11" fill="#486169" font-weight="normal" font-family="'JetBrains Mono', ui-monospace, SFMono-Regular, Menlo, Consolas, monospace">pare-feu</text><g filter="url(#homelab-light-fr-sh)"><rect x="380" y="120" width="442" height="424" rx="14" fill="#ffffff" stroke="#c8d6d2" stroke-width="1.5"/></g><path d="M380 134 a14 14 0 0 1 14 -14 h414 a14 14 0 0 1 14 14 v30 h-442 z" fill="#0a2229"/><text x="400" y="150" font-size="15" fill="#eef3f2" font-weight="bold" font-family="'Inter', system-ui, -apple-system, 'Segoe UI', Arial, sans-serif">NAS UGREEN DXP480T</text><rect x="724" y="130" width="82" height="22" rx="11" fill="#006d77"/><text x="765" y="145" font-size="11" fill="#ffffff" font-weight="bold" font-family="'JetBrains Mono', ui-monospace, SFMono-Regular, Menlo, Consolas, monospace" text-anchor="middle">Docker</text><text x="400" y="190" font-size="12" fill="#486169" font-weight="bold" font-family="'Inter', system-ui, -apple-system, 'Segoe UI', Arial, sans-serif">Services conteneurisés</text><g><rect x="400" y="202" width="196" height="54" rx="10" fill="#f4f8f7" stroke="#c8d6d2" stroke-width="1.5"/></g><circle cx="422" cy="229" r="7" fill="#006d77" fill-opacity="0.18" stroke="#006d77" stroke-opacity="0.5"/><circle cx="422" cy="229" r="3" fill="#006d77"/><text x="438" y="226" font-size="13" fill="#0a2229" font-weight="bold" font-family="'Inter', system-ui, -apple-system, 'Segoe UI', Arial, sans-serif">PostgreSQL</text><text x="438" y="242" font-size="10" fill="#486169" font-weight="normal" font-family="'JetBrains Mono', ui-monospace, SFMono-Regular, Menlo, Consolas, monospace">base de données</text><g><rect x="606" y="202" width="196" height="54" rx="10" fill="#f4f8f7" stroke="#c8d6d2" stroke-width="1.5"/></g><circle cx="628" cy="229" r="7" fill="#006d77" fill-opacity="0.18" stroke="#006d77" stroke-opacity="0.5"/><circle cx="628" cy="229" r="3" fill="#006d77"/><text x="644" y="226" font-size="13" fill="#0a2229" font-weight="bold" font-family="'Inter', system-ui, -apple-system, 'Segoe UI', Arial, sans-serif">ntfy</text><text x="644" y="242" font-size="10" fill="#486169" font-weight="normal" font-family="'JetBrains Mono', ui-monospace, SFMono-Regular, Menlo, Consolas, monospace">notifications push</text><g><rect x="400" y="264" width="196" height="54" rx="10" fill="#f4f8f7" stroke="#c8d6d2" stroke-width="1.5"/></g><circle cx="422" cy="291" r="7" fill="#006d77" fill-opacity="0.18" stroke="#006d77" stroke-opacity="0.5"/><circle cx="422" cy="291" r="3" fill="#006d77"/><text x="438" y="288" font-size="13" fill="#0a2229" font-weight="bold" font-family="'Inter', system-ui, -apple-system, 'Segoe UI', Arial, sans-serif">WireGuard</text><text x="438" y="304" font-size="10" fill="#486169" font-weight="normal" font-family="'JetBrains Mono', ui-monospace, SFMono-Regular, Menlo, Consolas, monospace">VPN auto-hébergé</text><g><rect x="606" y="264" width="196" height="54" rx="10" fill="#f4f8f7" stroke="#c8d6d2" stroke-width="1.5"/></g><circle cx="628" cy="291" r="7" fill="#006d77" fill-opacity="0.18" stroke="#006d77" stroke-opacity="0.5"/><circle cx="628" cy="291" r="3" fill="#006d77"/><text x="644" y="288" font-size="13" fill="#0a2229" font-weight="bold" font-family="'Inter', system-ui, -apple-system, 'Segoe UI', Arial, sans-serif">Serveurs de jeux</text><text x="644" y="304" font-size="10" fill="#486169" font-weight="normal" font-family="'JetBrains Mono', ui-monospace, SFMono-Regular, Menlo, Consolas, monospace">multijoueur</text><g><rect x="400" y="326" width="196" height="54" rx="10" fill="#f4f8f7" stroke="#c8d6d2" stroke-width="1.5"/></g><circle cx="422" cy="353" r="7" fill="#006d77" fill-opacity="0.18" stroke="#006d77" stroke-opacity="0.5"/><circle cx="422" cy="353" r="3" fill="#006d77"/><text x="438" y="350" font-size="13" fill="#0a2229" font-weight="bold" font-family="'Inter', system-ui, -apple-system, 'Segoe UI', Arial, sans-serif">Stockage RAID</text><text x="438" y="366" font-size="10" fill="#486169" font-weight="normal" font-family="'JetBrains Mono', ui-monospace, SFMono-Regular, Menlo, Consolas, monospace">données &amp; sauvegardes</text><g><rect x="606" y="326" width="196" height="54" rx="10" fill="#f4f8f7" stroke="#c8d6d2" stroke-width="1.5"/></g><circle cx="628" cy="353" r="7" fill="#006d77" fill-opacity="0.18" stroke="#006d77" stroke-opacity="0.5"/><circle cx="628" cy="353" r="3" fill="#006d77"/><text x="644" y="350" font-size="13" fill="#0a2229" font-weight="bold" font-family="'Inter', system-ui, -apple-system, 'Segoe UI', Arial, sans-serif">Caddy</text><text x="644" y="366" font-size="10" fill="#486169" font-weight="normal" font-family="'JetBrains Mono', ui-monospace, SFMono-Regular, Menlo, Consolas, monospace">reverse proxy / HTTPS</text><g><rect x="400" y="388" width="196" height="54" rx="10" fill="#f4f8f7" stroke="#c8d6d2" stroke-width="1.5"/></g><circle cx="422" cy="415" r="7" fill="#006d77" fill-opacity="0.18" stroke="#006d77" stroke-opacity="0.5"/><circle cx="422" cy="415" r="3" fill="#006d77"/><text x="438" y="412" font-size="13" fill="#0a2229" font-weight="bold" font-family="'Inter', system-ui, -apple-system, 'Segoe UI', Arial, sans-serif">Supervision</text><text x="438" y="428" font-size="10" fill="#486169" font-weight="normal" font-family="'JetBrains Mono', ui-monospace, SFMono-Regular, Menlo, Consolas, monospace">Uptime Kuma · Dockge</text><g><rect x="606" y="388" width="196" height="54" rx="10" fill="#f4f8f7" stroke="#c8d6d2" stroke-width="1.5"/></g><circle cx="628" cy="415" r="7" fill="#006d77" fill-opacity="0.18" stroke="#006d77" stroke-opacity="0.5"/><circle cx="628" cy="415" r="3" fill="#006d77"/><text x="644" y="412" font-size="13" fill="#0a2229" font-weight="bold" font-family="'Inter', system-ui, -apple-system, 'Segoe UI', Arial, sans-serif">Jellyfin</text><text x="644" y="428" font-size="10" fill="#486169" font-weight="normal" font-family="'JetBrains Mono', ui-monospace, SFMono-Regular, Menlo, Consolas, monospace">streaming média</text><text x="400" y="458" font-size="11" fill="#486169" fill-opacity="0.85" font-weight="normal" font-family="'Inter', system-ui, -apple-system, 'Segoe UI', Arial, sans-serif">+ docker-compose · Linux · durcissement</text><rect x="400" y="470" width="402" height="56" rx="10" fill="#f4f8f7"/><text x="416" y="492" font-size="11" fill="#486169" font-weight="normal" font-family="'JetBrains Mono', ui-monospace, SFMono-Regular, Menlo, Consolas, monospace">$ docker compose up -d</text><circle cx="420" cy="510" r="4" fill="#006d77"/><text x="432" y="514" font-size="11" fill="#006d77" font-weight="normal" font-family="'JetBrains Mono', ui-monospace, SFMono-Regular, Menlo, Consolas, monospace">8 services actifs</text><g filter="url(#homelab-light-fr-sh)"><rect x="928" y="160" width="184" height="64" rx="12" fill="#ffffff" stroke="#c8d6d2" stroke-width="1.5"/></g><g stroke="#006d77" stroke-width="2" fill="none"><rect x="948" y="180" width="30" height="22" rx="3"/><line x1="958" y1="208" x2="968" y2="208"/></g><text x="988" y="197" font-size="13" fill="#0a2229" font-weight="bold" font-family="'Inter', system-ui, -apple-system, 'Segoe UI', Arial, sans-serif">PC / Dev</text><g filter="url(#homelab-light-fr-sh)"><rect x="928" y="260" width="184" height="64" rx="12" fill="#ffffff" stroke="#c8d6d2" stroke-width="1.5"/></g><g stroke="#006d77" stroke-width="2" fill="none"><rect x="950" y="278" width="18" height="28" rx="3"/></g><text x="988" y="297" font-size="13" fill="#0a2229" font-weight="bold" font-family="'Inter', system-ui, -apple-system, 'Segoe UI', Arial, sans-serif">Mobile</text><g filter="url(#homelab-light-fr-sh)"><rect x="928" y="360" width="184" height="64" rx="12" fill="#ffffff" stroke="#c8d6d2" stroke-width="1.5"/></g><g stroke="#006d77" stroke-width="2" fill="none"><rect x="948" y="378" width="30" height="20" rx="3"/></g><text x="988" y="397" font-size="13" fill="#0a2229" font-weight="bold" font-family="'Inter', system-ui, -apple-system, 'Segoe UI', Arial, sans-serif">TV / Consoles</text><g filter="url(#homelab-light-fr-sh)"><rect x="928" y="474" width="184" height="64" rx="12" fill="#ffffff" stroke="#006d77" stroke-width="2"/></g><g stroke="#006d77" stroke-width="2" fill="none"><rect x="950" y="496" width="16" height="14" rx="2"/><path d="M953 496 v-4 a5 5 0 0 1 10 0 v4"/></g><text x="978" y="504" font-size="12.5" fill="#0a2229" font-weight="bold" font-family="'Inter', system-ui, -apple-system, 'Segoe UI', Arial, sans-serif">Accès distant</text><text x="978" y="521" font-size="10" fill="#486169" font-weight="normal" font-family="'JetBrains Mono', ui-monospace, SFMono-Regular, Menlo, Consolas, monospace">chiffré / sécurisé</text>
</svg>