<svg width="1200" height="675" viewBox="0 0 1200 675" xmlns="http://www.w3.org/2000/svg" font-family="'Inter', system-ui, -apple-system, 'Segoe UI', Arial, sans-serif">
  <defs>
    <pattern id="reseau-light-fr-dots" width="28" height="28" patternUnits="userSpaceOnUse"><circle cx="2" cy="2" r="1.4" fill="#c8d6d2" fill-opacity="0.7"/></pattern>
    <filter id="reseau-light-fr-sh" x="-20%" y="-20%" width="140%" height="160%"><feDropShadow dx="0" dy="6" stdDeviation="11" flood-color="#0a2229" flood-opacity="0.16"/></filter>
  </defs>
  <rect width="1200" height="675" fill="#eef3f2"/>
  <rect width="1200" height="675" fill="url(#reseau-light-fr-dots)"/>
  <g stroke="#486169" stroke-opacity="0.5" stroke-width="2" fill="none">
    <path d="M620 130 L620 168"/>
    <path d="M620 244 L620 296"/>
    <path d="M620 360 L225 436"/>
    <path d="M620 360 L475 436"/>
    <path d="M620 360 L725 436"/>
    <path d="M620 360 L975 436"/>
  </g><path d="M620 360 L225 436" stroke="#006d77" stroke-width="4" fill="none" opacity="0.9"/><rect x="356" y="384" width="74" height="22" rx="11" fill="#eef3f2"/><rect x="356" y="384" width="74" height="22" rx="11" fill="#006d77" fill-opacity="0.14" stroke="#006d77" stroke-opacity="0.32"/><text x="393" y="399" font-size="11" fill="#006d77" font-weight="bold" font-family="'JetBrains Mono', ui-monospace, SFMono-Regular, Menlo, Consolas, monospace" text-anchor="middle">10 GbE</text><path d="M720 205 L980 130" stroke="#006d77" stroke-width="2.5" stroke-dasharray="7 6" fill="none"/><rect x="828" y="150" width="120" height="22" rx="11" fill="#eef3f2"/><rect x="828" y="150" width="120" height="22" rx="11" fill="#006d77" fill-opacity="0.14" stroke="#006d77" stroke-opacity="0.32"/><text x="888" y="165" font-size="11" fill="#006d77" font-weight="bold" font-family="'JetBrains Mono', ui-monospace, SFMono-Regular, Menlo, Consolas, monospace" text-anchor="middle">WireGuard</text><path d="M325 545 C 350 580, 450 580, 475 545" stroke="#006d77" stroke-width="2" stroke-dasharray="6 5" fill="none" opacity="0.7"/><rect x="358" y="566" width="84" height="20" rx="10" fill="#eef3f2"/><rect x="358" y="566" width="84" height="20" rx="10" fill="#006d77" fill-opacity="0.14" stroke="#006d77" stroke-opacity="0.32"/><text x="400" y="580" font-size="10" fill="#006d77" font-weight="bold" font-family="'JetBrains Mono', ui-monospace, SFMono-Regular, Menlo, Consolas, monospace" text-anchor="middle">iSCSI</text><g filter="url(#reseau-light-fr-sh)"><rect x="540" y="74" width="160" height="56" rx="12" fill="#ffffff" stroke="#c8d6d2" stroke-width="1.5"/></g><g stroke="#006d77" stroke-width="2" fill="none"><circle cx="570" cy="102" r="13"/><ellipse cx="570" cy="102" rx="5.5" ry="13"/><line x1="557" y1="102" x2="583" y2="102"/></g><text x="594" y="107" font-size="14" fill="#0a2229" font-weight="bold" font-family="'Inter', system-ui, -apple-system, 'Segoe UI', Arial, sans-serif">Internet</text><g filter="url(#reseau-light-fr-sh)"><rect x="500" y="168" width="240" height="76" rx="12" fill="#ffffff" stroke="#c8d6d2" stroke-width="1.5"/></g><g stroke="#006d77" stroke-width="2" fill="none"><rect x="522" y="190" width="30" height="22" rx="3"/><path d="M528 190 v-8 M540 190 v-12"/></g><text x="566" y="200" font-size="14" fill="#0a2229" font-weight="bold" font-family="'Inter', system-ui, -apple-system, 'Segoe UI', Arial, sans-serif">Routeur / Pare-feu</text><text x="566" y="220" font-size="11" fill="#486169" font-weight="normal" font-family="'JetBrains Mono', ui-monospace, SFMono-Regular, Menlo, Consolas, monospace">AdGuard · iptables · NAT</text><g filter="url(#reseau-light-fr-sh)"><rect x="980" y="100" width="172" height="60" rx="14" fill="#ffffff" stroke="#006d77" stroke-width="2"/></g><g stroke="#006d77" stroke-width="2" fill="none"><rect x="1002" y="122" width="16" height="14" rx="2"/><path d="M1005 122 v-4 a5 5 0 0 1 10 0 v4"/></g><text x="1028" y="126" font-size="12.5" fill="#0a2229" font-weight="bold" font-family="'Inter', system-ui, -apple-system, 'Segoe UI', Arial, sans-serif">Accès distant</text><text x="1028" y="143" font-size="10" fill="#486169" font-weight="normal" font-family="'JetBrains Mono', ui-monospace, SFMono-Regular, Menlo, Consolas, monospace">VPN chiffré</text><g filter="url(#reseau-light-fr-sh)"><rect x="500" y="296" width="240" height="64" rx="12" fill="#0a2229" stroke="#0a2229" stroke-width="1.5"/></g><g fill="#eef3f2" fill-opacity="0.3"><rect x="520" y="332" width="20" height="12" rx="2"/><rect x="546" y="332" width="20" height="12" rx="2"/><rect x="572" y="332" width="20" height="12" rx="2"/><rect x="598" y="332" width="20" height="12" rx="2"/><rect x="624" y="332" width="20" height="12" rx="2"/><rect x="650" y="332" width="20" height="12" rx="2"/><rect x="676" y="332" width="20" height="12" rx="2"/><rect x="702" y="332" width="20" height="12" rx="2"/></g><text x="620" y="322" font-size="14" fill="#eef3f2" font-weight="bold" font-family="'Inter', system-ui, -apple-system, 'Segoe UI', Arial, sans-serif" text-anchor="middle">Switch managé · 10 GbE</text><g filter="url(#reseau-light-fr-sh)"><rect x="125" y="436" width="200" height="120" rx="12" fill="#ffffff" stroke="#c8d6d2" stroke-width="1.5"/></g><rect x="141" y="452" width="74" height="22" rx="11" fill="#006d77"/><text x="178" y="467" font-size="11" fill="#ffffff" font-weight="bold" font-family="'JetBrains Mono', ui-monospace, SFMono-Regular, Menlo, Consolas, monospace" text-anchor="middle">VLAN 10</text><text x="141" y="498" font-size="14" fill="#0a2229" font-weight="bold" font-family="'Inter', system-ui, -apple-system, 'Segoe UI', Arial, sans-serif">Serveurs</text><text x="141" y="518" font-size="11" fill="#486169" font-weight="normal" font-family="'Inter', system-ui, -apple-system, 'Segoe UI', Arial, sans-serif">NAS · Docker · Caddy</text><text x="141" y="538" font-size="11" fill="#486169" font-weight="normal" font-family="'Inter', system-ui, -apple-system, 'Segoe UI', Arial, sans-serif">Jellyfin · jeux · supervision</text><g filter="url(#reseau-light-fr-sh)"><rect x="375" y="436" width="200" height="120" rx="12" fill="#ffffff" stroke="#c8d6d2" stroke-width="1.5"/></g><rect x="391" y="452" width="74" height="22" rx="11" fill="#006d77"/><text x="428" y="467" font-size="11" fill="#ffffff" font-weight="bold" font-family="'JetBrains Mono', ui-monospace, SFMono-Regular, Menlo, Consolas, monospace" text-anchor="middle">VLAN 20</text><text x="391" y="498" font-size="14" fill="#0a2229" font-weight="bold" font-family="'Inter', system-ui, -apple-system, 'Segoe UI', Arial, sans-serif">Postes de travail</text><text x="391" y="518" font-size="11" fill="#486169" font-weight="normal" font-family="'Inter', system-ui, -apple-system, 'Segoe UI', Arial, sans-serif">PC / dev</text><text x="391" y="538" font-size="11" fill="#486169" font-weight="normal" font-family="'Inter', system-ui, -apple-system, 'Segoe UI', Arial, sans-serif">machines de travail</text><g filter="url(#reseau-light-fr-sh)"><rect x="625" y="436" width="200" height="120" rx="12" fill="#ffffff" stroke="#c8d6d2" stroke-width="1.5"/></g><rect x="641" y="452" width="74" height="22" rx="11" fill="#006d77"/><text x="678" y="467" font-size="11" fill="#ffffff" font-weight="bold" font-family="'JetBrains Mono', ui-monospace, SFMono-Regular, Menlo, Consolas, monospace" text-anchor="middle">VLAN 30</text><text x="641" y="498" font-size="14" fill="#0a2229" font-weight="bold" font-family="'Inter', system-ui, -apple-system, 'Segoe UI', Arial, sans-serif">IoT / Domotique</text><text x="641" y="518" font-size="11" fill="#486169" font-weight="normal" font-family="'Inter', system-ui, -apple-system, 'Segoe UI', Arial, sans-serif">objets connectés</text><text x="641" y="538" font-size="11" fill="#486169" font-weight="normal" font-family="'Inter', system-ui, -apple-system, 'Segoe UI', Arial, sans-serif">isolé du LAN</text><g filter="url(#reseau-light-fr-sh)"><rect x="875" y="436" width="200" height="120" rx="12" fill="#ffffff" stroke="#c8d6d2" stroke-width="1.5"/></g><rect x="891" y="452" width="74" height="22" rx="11" fill="#006d77"/><text x="928" y="467" font-size="11" fill="#ffffff" font-weight="bold" font-family="'JetBrains Mono', ui-monospace, SFMono-Regular, Menlo, Consolas, monospace" text-anchor="middle">VLAN 40</text><text x="891" y="498" font-size="14" fill="#0a2229" font-weight="bold" font-family="'Inter', system-ui, -apple-system, 'Segoe UI', Arial, sans-serif">Invités / Wi-Fi</text><text x="891" y="518" font-size="11" fill="#486169" font-weight="normal" font-family="'Inter', system-ui, -apple-system, 'Segoe UI', Arial, sans-serif">accès limité</text><text x="891" y="538" font-size="11" fill="#486169" font-weight="normal" font-family="'Inter', system-ui, -apple-system, 'Segoe UI', Arial, sans-serif">aucun accès interne</text>
</svg>