<svg width="1200" height="675" viewBox="0 0 1200 675" xmlns="http://www.w3.org/2000/svg" font-family="'Inter', system-ui, -apple-system, 'Segoe UI', Arial, sans-serif">
  <defs>
    <pattern id="resilience-dark-en-dots" width="28" height="28" patternUnits="userSpaceOnUse"><circle cx="2" cy="2" r="1.4" fill="#1f2a30" fill-opacity="0.8"/></pattern>
    <filter id="resilience-dark-en-sh" x="-20%" y="-20%" width="140%" height="160%"><feDropShadow dx="0" dy="6" stdDeviation="11" flood-color="#000000" flood-opacity="0.45"/></filter><marker id="resilience-dark-en-arrow" markerWidth="9" markerHeight="9" refX="7" refY="4.5" orient="auto"><path d="M0 0 L9 4.5 L0 9 z" fill="#8b98a5"/></marker>
  </defs>
  <rect width="1200" height="675" fill="#0d1418"/>
  <rect width="1200" height="675" fill="url(#resilience-dark-en-dots)"/>
  <g stroke="#8b98a5" stroke-opacity="0.6" stroke-width="2.5" fill="none">
    <path d="M370 275 L468 275" marker-end="url(#resilience-dark-en-arrow)"/>
    <path d="M730 275 L828 275" marker-end="url(#resilience-dark-en-arrow)"/>
  </g><text x="419" y="262" font-size="11" fill="#8b98a5" font-weight="normal" font-family="'JetBrains Mono', ui-monospace, SFMono-Regular, Menlo, Consolas, monospace" text-anchor="middle">restic</text><rect x="748" y="250" width="64" height="24" rx="12" fill="#0d1418"/><rect x="748" y="250" width="64" height="24" rx="12" fill="#14b8a6" fill-opacity="0.14" stroke="#14b8a6" stroke-opacity="0.32"/><text x="780" y="266" font-size="11" fill="#14b8a6" font-weight="bold" font-family="'JetBrains Mono', ui-monospace, SFMono-Regular, Menlo, Consolas, monospace" text-anchor="middle">SFTP</text><text x="780" y="296" font-size="10" fill="#8b98a5" font-weight="normal" font-family="'JetBrains Mono', ui-monospace, SFMono-Regular, Menlo, Consolas, monospace" text-anchor="middle">on power-on</text><path d="M600 348 L600 470" stroke="#14b8a6" stroke-width="2.5" stroke-dasharray="7 6" fill="none" marker-end="url(#resilience-dark-en-arrow)"/><g filter="url(#resilience-dark-en-sh)"><rect x="70" y="150" width="300" height="252" rx="14" fill="#121c20" stroke="#1f2a30" stroke-width="1.5"/></g><path d="M70 164 a14 14 0 0 1 14 -14 h272 a14 14 0 0 1 14 14 v30 h-300 z" fill="#06121a"/><text x="92" y="182" font-size="14" fill="#e6edf3" font-weight="bold" font-family="'Inter', system-ui, -apple-system, 'Segoe UI', Arial, sans-serif">NAS — source</text><g><rect x="90" y="216" width="260" height="44" rx="8" fill="#0e171b" stroke="#1f2a30" stroke-width="1.5"/></g><circle cx="112" cy="238" r="4" fill="#14b8a6"/><text x="126" y="235" font-size="11.5" fill="#e6edf3" font-weight="bold" font-family="'JetBrains Mono', ui-monospace, SFMono-Regular, Menlo, Consolas, monospace">/volume1/docker</text><text x="126" y="250" font-size="9.5" fill="#8b98a5" font-weight="normal" font-family="'Inter', system-ui, -apple-system, 'Segoe UI', Arial, sans-serif">services & configs</text><g><rect x="90" y="268" width="260" height="44" rx="8" fill="#0e171b" stroke="#1f2a30" stroke-width="1.5"/></g><circle cx="112" cy="290" r="4" fill="#14b8a6"/><text x="126" y="287" font-size="11.5" fill="#e6edf3" font-weight="bold" font-family="'JetBrains Mono', ui-monospace, SFMono-Regular, Menlo, Consolas, monospace">named volumes</text><text x="126" y="302" font-size="9.5" fill="#8b98a5" font-weight="normal" font-family="'Inter', system-ui, -apple-system, 'Segoe UI', Arial, sans-serif">ntfy · caddy · wireguard</text><g><rect x="90" y="320" width="260" height="44" rx="8" fill="#0e171b" stroke="#1f2a30" stroke-width="1.5"/></g><circle cx="112" cy="342" r="4" fill="#14b8a6"/><text x="126" y="339" font-size="11.5" fill="#e6edf3" font-weight="bold" font-family="'JetBrains Mono', ui-monospace, SFMono-Regular, Menlo, Consolas, monospace">pg_dump</text><text x="126" y="354" font-size="9.5" fill="#8b98a5" font-weight="normal" font-family="'Inter', system-ui, -apple-system, 'Segoe UI', Arial, sans-serif">PostgreSQL database</text><text x="90" y="388" font-size="10.5" fill="#8b98a5" fill-opacity="0.9" font-weight="normal" font-family="'JetBrains Mono', ui-monospace, SFMono-Regular, Menlo, Consolas, monospace">+ RAID1 — local mirror redundancy</text><g filter="url(#resilience-dark-en-sh)"><rect x="470" y="208" width="260" height="140" rx="14" fill="#06121a" stroke="#06121a" stroke-width="1.5"/></g><rect x="583" y="240" width="34" height="26" rx="5" fill="none" stroke="#14b8a6" stroke-width="2.5"/><path d="M589 240 v-8 a11 11 0 0 1 22 0 v8" fill="none" stroke="#14b8a6" stroke-width="2.5"/><circle cx="600" cy="252" r="3" fill="#14b8a6"/><text x="600" y="296" font-size="15" fill="#e6edf3" font-weight="bold" font-family="'Inter', system-ui, -apple-system, 'Segoe UI', Arial, sans-serif" text-anchor="middle">restic</text><text x="600" y="315" font-size="10.5" fill="#e6edf3" fill-opacity="0.75" font-weight="normal" font-family="'Inter', system-ui, -apple-system, 'Segoe UI', Arial, sans-serif" text-anchor="middle">encrypted · deduplicated</text><text x="600" y="333" font-size="10" fill="#14b8a6" font-weight="normal" font-family="'JetBrains Mono', ui-monospace, SFMono-Regular, Menlo, Consolas, monospace" text-anchor="middle">7 d · 4 wk · 6 mo</text><g filter="url(#resilience-dark-en-sh)"><rect x="830" y="150" width="300" height="252" rx="14" fill="#121c20" stroke="#1f2a30" stroke-width="1.5"/></g><path d="M830 164 a14 14 0 0 1 14 -14 h272 a14 14 0 0 1 14 14 v30 h-300 z" fill="#06121a"/><text x="852" y="182" font-size="14" fill="#e6edf3" font-weight="bold" font-family="'Inter', system-ui, -apple-system, 'Segoe UI', Arial, sans-serif">PC — off-site copy</text><g><rect x="850" y="216" width="260" height="40" rx="8" fill="#0e171b" stroke="#1f2a30" stroke-width="1.5"/></g><circle cx="872" cy="236" r="4" fill="#22c55e"/><text x="886" y="240" font-size="11" fill="#e6edf3" font-weight="normal" font-family="'JetBrains Mono', ui-monospace, SFMono-Regular, Menlo, Consolas, monospace">2026-07-12 08:14</text><text x="1096" y="240" font-size="10.5" fill="#8b98a5" font-weight="normal" font-family="'JetBrains Mono', ui-monospace, SFMono-Regular, Menlo, Consolas, monospace" text-anchor="end">1.49 GiB</text><g><rect x="850" y="264" width="260" height="40" rx="8" fill="#0e171b" stroke="#1f2a30" stroke-width="1.5"/></g><circle cx="872" cy="284" r="4" fill="#14b8a6"/><text x="886" y="288" font-size="11" fill="#e6edf3" font-weight="normal" font-family="'JetBrains Mono', ui-monospace, SFMono-Regular, Menlo, Consolas, monospace">2026-07-11 22:03</text><text x="1096" y="288" font-size="10.5" fill="#8b98a5" font-weight="normal" font-family="'JetBrains Mono', ui-monospace, SFMono-Regular, Menlo, Consolas, monospace" text-anchor="end">1.48 GiB</text><g><rect x="850" y="312" width="260" height="40" rx="8" fill="#0e171b" stroke="#1f2a30" stroke-width="1.5"/></g><circle cx="872" cy="332" r="4" fill="#14b8a6"/><text x="886" y="336" font-size="11" fill="#e6edf3" font-weight="normal" font-family="'JetBrains Mono', ui-monospace, SFMono-Regular, Menlo, Consolas, monospace">2026-07-11 08:07</text><text x="1096" y="336" font-size="10.5" fill="#8b98a5" font-weight="normal" font-family="'JetBrains Mono', ui-monospace, SFMono-Regular, Menlo, Consolas, monospace" text-anchor="end">1.47 GiB</text><circle cx="861" cy="388" r="5" fill="#22c55e"/><text x="874" y="392" font-size="11" fill="#22c55e" font-weight="bold" font-family="'JetBrains Mono', ui-monospace, SFMono-Regular, Menlo, Consolas, monospace">restore tested ✓</text><g filter="url(#resilience-dark-en-sh)"><rect x="456" y="470" width="288" height="118" rx="14" fill="#121c20" stroke="#14b8a6" stroke-width="2"/></g><text x="600" y="500" font-size="13" fill="#e6edf3" font-weight="bold" font-family="'Inter', system-ui, -apple-system, 'Segoe UI', Arial, sans-serif" text-anchor="middle">Dead-man's-switch</text><text x="600" y="522" font-size="11" fill="#8b98a5" font-weight="normal" font-family="'Inter', system-ui, -apple-system, 'Segoe UI', Arial, sans-serif" text-anchor="middle">no backup for 48 h</text><rect x="512" y="540" width="176" height="30" rx="8" fill="#14b8a6" fill-opacity="0.12" stroke="#14b8a6" stroke-opacity="0.32"/><text x="600" y="560" font-size="11" fill="#14b8a6" font-weight="bold" font-family="'JetBrains Mono', ui-monospace, SFMono-Regular, Menlo, Consolas, monospace" text-anchor="middle">→ ntfy / Kuma alert</text>
</svg>