<svg width="1200" height="675" viewBox="0 0 1200 675" xmlns="http://www.w3.org/2000/svg" font-family="'Inter', system-ui, -apple-system, 'Segoe UI', Arial, sans-serif">
  <defs>
    <pattern id="web-clients-dark-fr-dots" width="28" height="28" patternUnits="userSpaceOnUse"><circle cx="2" cy="2" r="1.4" fill="#1f2a30" fill-opacity="0.8"/></pattern>
    <filter id="web-clients-dark-fr-sh" x="-20%" y="-20%" width="140%" height="160%"><feDropShadow dx="0" dy="6" stdDeviation="11" flood-color="#000000" flood-opacity="0.45"/></filter><linearGradient id="web-clients-dark-fr-thumb" x1="0" y1="0" x2="1" y2="1"><stop offset="0" stop-color="#2dd4bf" stop-opacity="0.30"/><stop offset="1" stop-color="#2dd4bf" stop-opacity="0.06"/></linearGradient>
  </defs>
  <rect width="1200" height="675" fill="#0d1418"/>
  <rect width="1200" height="675" fill="url(#web-clients-dark-fr-dots)"/>
  <text x="48" y="56" font-size="13" fill="#8b98a5" font-weight="normal" font-family="'Inter', system-ui, -apple-system, 'Segoe UI', Arial, sans-serif">Site vitrine — artisan / indépendant</text><g filter="url(#web-clients-dark-fr-sh)"><rect x="48" y="66" width="624" height="300" rx="12" fill="#121c20" stroke="#1f2a30" stroke-width="1.5"/></g><circle cx="68" cy="83" r="4" fill="#2dd4bf"/><circle cx="82" cy="83" r="4" fill="#2dd4bf" fill-opacity="0.55"/><circle cx="96" cy="83" r="4" fill="#8b98a5" fill-opacity="0.5"/><rect x="118" y="75" width="220" height="16" rx="8" fill="#0e171b"/><text x="130" y="87" font-size="10" fill="#8b98a5" font-weight="normal" font-family="'JetBrains Mono', ui-monospace, SFMono-Regular, Menlo, Consolas, monospace">menuiserie-dupont.fr</text><line x1="48" y1="100" x2="672" y2="100" stroke="#1f2a30"/><rect x="66" y="116" width="14" height="14" rx="3" fill="#2dd4bf"/><text x="86" y="128" font-size="13" fill="#e6edf3" font-weight="bold" font-family="'Inter', system-ui, -apple-system, 'Segoe UI', Arial, sans-serif">Menuiserie Dupont</text><text x="386" y="128" font-size="11" fill="#8b98a5" font-weight="normal" font-family="'Inter', system-ui, -apple-system, 'Segoe UI', Arial, sans-serif">Accueil</text><text x="442" y="128" font-size="11" fill="#8b98a5" font-weight="normal" font-family="'Inter', system-ui, -apple-system, 'Segoe UI', Arial, sans-serif">Projets</text><text x="520" y="128" font-size="11" fill="#8b98a5" font-weight="normal" font-family="'Inter', system-ui, -apple-system, 'Segoe UI', Arial, sans-serif">Services</text><rect x="584" y="116" width="70" height="22" rx="11" fill="#2dd4bf"/><text x="619" y="131" font-size="10" fill="#06201d" font-weight="bold" font-family="'Inter', system-ui, -apple-system, 'Segoe UI', Arial, sans-serif" text-anchor="middle">Devis</text><text x="66" y="186" font-size="24" fill="#e6edf3" font-weight="bold" font-family="'Inter', system-ui, -apple-system, 'Segoe UI', Arial, sans-serif">Le menuisier,</text><text x="66" y="216" font-size="24" fill="#2dd4bf" font-weight="bold" font-family="'Inter', system-ui, -apple-system, 'Segoe UI', Arial, sans-serif">sur mesure.</text><text x="66" y="242" font-size="12" fill="#8b98a5" font-weight="normal" font-family="'Inter', system-ui, -apple-system, 'Segoe UI', Arial, sans-serif">Meubles sur mesure &amp; rénovation</text><text x="66" y="259" font-size="12" fill="#8b98a5" font-weight="normal" font-family="'Inter', system-ui, -apple-system, 'Segoe UI', Arial, sans-serif">pour particuliers &amp; entreprises.</text><rect x="66" y="276" width="168" height="38" rx="9" fill="#2dd4bf"/><text x="150" y="300" font-size="12.5" fill="#06201d" font-weight="bold" font-family="'Inter', system-ui, -apple-system, 'Segoe UI', Arial, sans-serif" text-anchor="middle">Demander un devis</text><rect x="394" y="156" width="256" height="158" rx="10" fill="url(#web-clients-dark-fr-thumb)" stroke="#2dd4bf" stroke-opacity="0.3"/><g stroke="#2dd4bf" stroke-opacity="0.55" fill="none" stroke-width="2"><circle cx="447" cy="202" r="13"/><path d="M414 290 L470 238 L506 270 L548 228 L620 300"/></g><text x="66" y="342" font-size="11" fill="#2dd4bf" fill-opacity="0.85" font-weight="normal" font-family="'Inter', system-ui, -apple-system, 'Segoe UI', Arial, sans-serif">▸ Agencement</text><text x="206" y="342" font-size="11" fill="#2dd4bf" fill-opacity="0.85" font-weight="normal" font-family="'Inter', system-ui, -apple-system, 'Segoe UI', Arial, sans-serif">▸ Meubles sur mesure</text><text x="392" y="342" font-size="11" fill="#2dd4bf" fill-opacity="0.85" font-weight="normal" font-family="'Inter', system-ui, -apple-system, 'Segoe UI', Arial, sans-serif">▸ Rénovation</text><text x="48" y="400" font-size="13" fill="#8b98a5" font-weight="normal" font-family="'Inter', system-ui, -apple-system, 'Segoe UI', Arial, sans-serif">App web sur mesure — gestion</text><g filter="url(#web-clients-dark-fr-sh)"><rect x="48" y="410" width="624" height="228" rx="12" fill="#121c20" stroke="#1f2a30" stroke-width="1.5"/></g><circle cx="68" cy="430" r="6" fill="#2dd4bf"/><text x="82" y="435" font-size="12" fill="#e6edf3" font-weight="bold" font-family="'Inter', system-ui, -apple-system, 'Segoe UI', Arial, sans-serif">StockApp</text><line x1="48" y1="446" x2="672" y2="446" stroke="#1f2a30"/><rect x="48" y="446" width="120" height="192" fill="#0e171b"/><rect x="58" y="458" width="100" height="26" rx="6" fill="#2dd4bf" fill-opacity="0.14"/><text x="70" y="475" font-size="10.5" fill="#2dd4bf" font-weight="bold" font-family="'Inter', system-ui, -apple-system, 'Segoe UI', Arial, sans-serif">Tableau de bord</text><text x="70" y="508" font-size="10.5" fill="#8b98a5" font-weight="normal" font-family="'Inter', system-ui, -apple-system, 'Segoe UI', Arial, sans-serif">Clients (CRM)</text><text x="70" y="536" font-size="10.5" fill="#8b98a5" font-weight="normal" font-family="'Inter', system-ui, -apple-system, 'Segoe UI', Arial, sans-serif">Stock</text><text x="70" y="564" font-size="10.5" fill="#8b98a5" font-weight="normal" font-family="'Inter', system-ui, -apple-system, 'Segoe UI', Arial, sans-serif">Réservations</text><text x="70" y="592" font-size="10.5" fill="#8b98a5" font-weight="normal" font-family="'Inter', system-ui, -apple-system, 'Segoe UI', Arial, sans-serif">Statistiques</text><rect x="184" y="462" width="146" height="64" rx="8" fill="#121c20" stroke="#1f2a30"/><text x="196" y="484" font-size="10" fill="#8b98a5" font-weight="normal" font-family="'Inter', system-ui, -apple-system, 'Segoe UI', Arial, sans-serif">Revenus</text><text x="196" y="510" font-size="17" fill="#e6edf3" font-weight="bold" font-family="'Inter', system-ui, -apple-system, 'Segoe UI', Arial, sans-serif">8 240 €</text><rect x="342" y="462" width="146" height="64" rx="8" fill="#121c20" stroke="#1f2a30"/><text x="354" y="484" font-size="10" fill="#8b98a5" font-weight="normal" font-family="'Inter', system-ui, -apple-system, 'Segoe UI', Arial, sans-serif">Commandes</text><text x="354" y="510" font-size="17" fill="#e6edf3" font-weight="bold" font-family="'Inter', system-ui, -apple-system, 'Segoe UI', Arial, sans-serif">32</text><rect x="500" y="462" width="150" height="64" rx="8" fill="#121c20" stroke="#1f2a30"/><text x="512" y="484" font-size="10" fill="#8b98a5" font-weight="normal" font-family="'Inter', system-ui, -apple-system, 'Segoe UI', Arial, sans-serif">Articles en stock</text><text x="512" y="510" font-size="17" fill="#e6edf3" font-weight="bold" font-family="'Inter', system-ui, -apple-system, 'Segoe UI', Arial, sans-serif">1 320</text><rect x="184" y="540" width="300" height="86" rx="8" fill="#121c20" stroke="#1f2a30"/><rect x="202" y="592" width="20" height="24" rx="2" fill="#2dd4bf" fill-opacity="0.4"/><rect x="232" y="576" width="20" height="40" rx="2" fill="#2dd4bf" fill-opacity="0.46"/><rect x="262" y="600" width="20" height="16" rx="2" fill="#2dd4bf" fill-opacity="0.52"/><rect x="292" y="568" width="20" height="48" rx="2" fill="#2dd4bf" fill-opacity="0.4"/><rect x="322" y="586" width="20" height="30" rx="2" fill="#2dd4bf" fill-opacity="0.46"/><rect x="352" y="560" width="20" height="56" rx="2" fill="#2dd4bf" fill-opacity="0.52"/><rect x="382" y="594" width="20" height="22" rx="2" fill="#2dd4bf" fill-opacity="0.4"/><rect x="412" y="580" width="20" height="36" rx="2" fill="#2dd4bf" fill-opacity="0.46"/><rect x="442" y="598" width="20" height="18" rx="2" fill="#2dd4bf" fill-opacity="0.52"/><rect x="500" y="540" width="150" height="86" rx="8" fill="#121c20" stroke="#1f2a30"/><circle cx="516" cy="564" r="8" fill="#2dd4bf" fill-opacity="0.16"/><text x="532" y="568" font-size="10.5" fill="#8b98a5" font-weight="normal" font-family="'Inter', system-ui, -apple-system, 'Segoe UI', Arial, sans-serif">Marie Lefevre</text><circle cx="516" cy="590" r="8" fill="#2dd4bf" fill-opacity="0.16"/><text x="532" y="594" font-size="10.5" fill="#8b98a5" font-weight="normal" font-family="'Inter', system-ui, -apple-system, 'Segoe UI', Arial, sans-serif">Thomas Roche</text><circle cx="516" cy="616" r="8" fill="#2dd4bf" fill-opacity="0.16"/><text x="532" y="620" font-size="10.5" fill="#8b98a5" font-weight="normal" font-family="'Inter', system-ui, -apple-system, 'Segoe UI', Arial, sans-serif">Lea Hubert</text><text x="700" y="56" font-size="13" fill="#8b98a5" font-weight="normal" font-family="'Inter', system-ui, -apple-system, 'Segoe UI', Arial, sans-serif">Mobile · Responsive</text><g filter="url(#web-clients-dark-fr-sh)"><rect x="700" y="66" width="190" height="360" rx="24" fill="#121c20" stroke="#1f2a30" stroke-width="1.5"/></g><rect x="770" y="82" width="40" height="6" rx="3" fill="#1f2a30"/><g stroke="#e6edf3" stroke-width="2"><line x1="716" y1="108" x2="730" y2="108"/><line x1="716" y1="114" x2="730" y2="114"/><line x1="716" y1="120" x2="730" y2="120"/></g><text x="745" y="118" font-size="11" fill="#e6edf3" font-weight="bold" font-family="'Inter', system-ui, -apple-system, 'Segoe UI', Arial, sans-serif">Menuiserie Dupont</text><rect x="716" y="134" width="158" height="104" rx="10" fill="url(#web-clients-dark-fr-thumb)"/><circle cx="752" cy="168" r="9" fill="#2dd4bf" fill-opacity="0.4"/><text x="716" y="268" font-size="15" fill="#e6edf3" font-weight="bold" font-family="'Inter', system-ui, -apple-system, 'Segoe UI', Arial, sans-serif">Le menuisier</text><text x="716" y="288" font-size="15" fill="#2dd4bf" font-weight="bold" font-family="'Inter', system-ui, -apple-system, 'Segoe UI', Arial, sans-serif">sur mesure</text><text x="716" y="310" font-size="10" fill="#8b98a5" font-weight="normal" font-family="'Inter', system-ui, -apple-system, 'Segoe UI', Arial, sans-serif">Meubles &amp; agencement</text><rect x="716" y="328" width="158" height="36" rx="9" fill="#2dd4bf"/><text x="795" y="351" font-size="12" fill="#06201d" font-weight="bold" font-family="'Inter', system-ui, -apple-system, 'Segoe UI', Arial, sans-serif" text-anchor="middle">Demander un devis</text><rect x="716" y="380" width="74" height="30" rx="7" fill="#0e171b"/><rect x="800" y="380" width="74" height="30" rx="7" fill="#0e171b"/><text x="912" y="56" font-size="13" fill="#8b98a5" font-weight="normal" font-family="'Inter', system-ui, -apple-system, 'Segoe UI', Arial, sans-serif">Module de réservations</text><g filter="url(#web-clients-dark-fr-sh)"><rect x="912" y="66" width="240" height="360" rx="14" fill="#121c20" stroke="#1f2a30" stroke-width="1.5"/></g><text x="930" y="102" font-size="14" fill="#e6edf3" font-weight="bold" font-family="'Inter', system-ui, -apple-system, 'Segoe UI', Arial, sans-serif">Réservations</text><text x="1136" y="102" font-size="10" fill="#8b98a5" font-weight="normal" font-family="'Inter', system-ui, -apple-system, 'Segoe UI', Arial, sans-serif" text-anchor="end">Juin 2026</text><rect x="928" y="114" width="208" height="44" rx="8" fill="#0e171b"/><rect x="928" y="114" width="4" height="44" rx="2" fill="#2dd4bf"/><text x="944" y="134" font-size="11" fill="#e6edf3" font-weight="bold" font-family="'Inter', system-ui, -apple-system, 'Segoe UI', Arial, sans-serif">Lun 09:00</text><text x="944" y="149" font-size="10" fill="#8b98a5" font-weight="normal" font-family="'Inter', system-ui, -apple-system, 'Segoe UI', Arial, sans-serif">M. Dupont · Devis cuisine</text><rect x="928" y="164" width="208" height="44" rx="8" fill="#0e171b"/><rect x="928" y="164" width="4" height="44" rx="2" fill="#2dd4bf"/><text x="944" y="184" font-size="11" fill="#e6edf3" font-weight="bold" font-family="'Inter', system-ui, -apple-system, 'Segoe UI', Arial, sans-serif">Mar 14:00</text><text x="944" y="199" font-size="10" fill="#8b98a5" font-weight="normal" font-family="'Inter', system-ui, -apple-system, 'Segoe UI', Arial, sans-serif">Mme Martin · Pose dressing</text><rect x="928" y="214" width="208" height="44" rx="8" fill="#0e171b"/><rect x="928" y="214" width="4" height="44" rx="2" fill="#2dd4bf"/><text x="944" y="234" font-size="11" fill="#e6edf3" font-weight="bold" font-family="'Inter', system-ui, -apple-system, 'Segoe UI', Arial, sans-serif">Mer 11:30</text><text x="944" y="249" font-size="10" fill="#8b98a5" font-weight="normal" font-family="'Inter', system-ui, -apple-system, 'Segoe UI', Arial, sans-serif">M. Bernard · Prise de mesures</text><rect x="928" y="264" width="208" height="44" rx="8" fill="#0e171b"/><rect x="928" y="264" width="4" height="44" rx="2" fill="#2dd4bf"/><text x="944" y="284" font-size="11" fill="#e6edf3" font-weight="bold" font-family="'Inter', system-ui, -apple-system, 'Segoe UI', Arial, sans-serif">Jeu 16:15</text><text x="944" y="299" font-size="10" fill="#8b98a5" font-weight="normal" font-family="'Inter', system-ui, -apple-system, 'Segoe UI', Arial, sans-serif">Mme Roche · Livraison</text><rect x="928" y="314" width="208" height="44" rx="8" fill="#0e171b"/><rect x="928" y="314" width="4" height="44" rx="2" fill="#2dd4bf"/><text x="944" y="334" font-size="11" fill="#e6edf3" font-weight="bold" font-family="'Inter', system-ui, -apple-system, 'Segoe UI', Arial, sans-serif">Ven 10:00</text><text x="944" y="349" font-size="10" fill="#8b98a5" font-weight="normal" font-family="'Inter', system-ui, -apple-system, 'Segoe UI', Arial, sans-serif">M. Hubert · Devis terrasse</text><rect x="928" y="376" width="208" height="38" rx="9" fill="#2dd4bf"/><text x="1032" y="400" font-size="12.5" fill="#06201d" font-weight="bold" font-family="'Inter', system-ui, -apple-system, 'Segoe UI', Arial, sans-serif" text-anchor="middle">+ Nouvelle résa</text><text x="700" y="456" font-size="13" fill="#8b98a5" font-weight="normal" font-family="'Inter', system-ui, -apple-system, 'Segoe UI', Arial, sans-serif">Formulaire de contact</text><g filter="url(#web-clients-dark-fr-sh)"><rect x="700" y="466" width="452" height="172" rx="12" fill="#121c20" stroke="#1f2a30" stroke-width="1.5"/></g><text x="718" y="494" font-size="13" fill="#e6edf3" font-weight="bold" font-family="'Inter', system-ui, -apple-system, 'Segoe UI', Arial, sans-serif">Contactez-nous</text><rect x="718" y="506" width="205" height="30" rx="7" fill="#0e171b" stroke="#1f2a30"/><text x="730" y="525" font-size="10" fill="#8b98a5" fill-opacity="0.85" font-weight="normal" font-family="'Inter', system-ui, -apple-system, 'Segoe UI', Arial, sans-serif">Nom</text><rect x="935" y="506" width="205" height="30" rx="7" fill="#0e171b" stroke="#1f2a30"/><text x="947" y="525" font-size="10" fill="#8b98a5" fill-opacity="0.85" font-weight="normal" font-family="'Inter', system-ui, -apple-system, 'Segoe UI', Arial, sans-serif">Email</text><rect x="718" y="544" width="422" height="40" rx="7" fill="#0e171b" stroke="#1f2a30"/><text x="730" y="568" font-size="10" fill="#8b98a5" fill-opacity="0.85" font-weight="normal" font-family="'Inter', system-ui, -apple-system, 'Segoe UI', Arial, sans-serif">Votre message…</text><rect x="718" y="594" width="422" height="32" rx="8" fill="#2dd4bf"/><text x="929" y="615" font-size="12" fill="#06201d" font-weight="bold" font-family="'Inter', system-ui, -apple-system, 'Segoe UI', Arial, sans-serif" text-anchor="middle">Envoyer</text>
</svg>