<svg width="1200" height="675" viewBox="0 0 1200 675" xmlns="http://www.w3.org/2000/svg" font-family="'Inter', system-ui, -apple-system, 'Segoe UI', Arial, sans-serif">
  <defs>
    <pattern id="portfolio-dark-en-dots" width="28" height="28" patternUnits="userSpaceOnUse"><circle cx="2" cy="2" r="1.4" fill="#1f2a30" fill-opacity="0.8"/></pattern>
    <filter id="portfolio-dark-en-sh" x="-20%" y="-20%" width="140%" height="160%"><feDropShadow dx="0" dy="6" stdDeviation="11" flood-color="#000000" flood-opacity="0.45"/></filter><marker id="portfolio-dark-en-arrow" markerWidth="9" markerHeight="9" refX="7" refY="4.5" orient="auto"><path d="M0 0 L9 4.5 L0 9 z" fill="#8b98a5"/></marker>
  </defs>
  <rect width="1200" height="675" fill="#0d1418"/>
  <rect width="1200" height="675" fill="url(#portfolio-dark-en-dots)"/>
  <text x="48" y="56" font-size="13" fill="#8b98a5" font-weight="normal" font-family="'Inter', system-ui, -apple-system, 'Segoe UI', Arial, sans-serif">Portfolio — React · TypeScript · Vite · Tailwind</text><g filter="url(#portfolio-dark-en-sh)"><rect x="48" y="66" width="556" height="322" rx="12" fill="#121c20" stroke="#1f2a30" stroke-width="1.5"/></g><text x="70" y="100" font-size="14" fill="#8b98a5" font-weight="bold" font-family="'JetBrains Mono', ui-monospace, SFMono-Regular, Menlo, Consolas, monospace">// </text><text x="94" y="100" font-size="14" fill="#2dd4bf" font-weight="bold" font-family="'JetBrains Mono', ui-monospace, SFMono-Regular, Menlo, Consolas, monospace">alexis.wallez</text><text x="584" y="99" font-size="10" fill="#8b98a5" font-weight="normal" font-family="'Inter', system-ui, -apple-system, 'Segoe UI', Arial, sans-serif" text-anchor="end">Skills · Projects · Services · Contact</text><line x1="48" y1="116" x2="604" y2="116" stroke="#1f2a30"/><rect x="70" y="130" width="512" height="182" rx="10" fill="#0e171b" stroke="#1f2a30"/><circle cx="90" cy="150" r="4" fill="#2dd4bf"/><circle cx="104" cy="150" r="4" fill="#2dd4bf" fill-opacity="0.55"/><circle cx="118" cy="150" r="4" fill="#8b98a5" fill-opacity="0.5"/><text x="90" y="186" font-size="13.5" fill="#2dd4bf" font-weight="normal" font-family="'JetBrains Mono', ui-monospace, SFMono-Regular, Menlo, Consolas, monospace">$ </text><text x="104" y="186" font-size="13.5" fill="#e6edf3" font-weight="normal" font-family="'JetBrains Mono', ui-monospace, SFMono-Regular, Menlo, Consolas, monospace">whoami</text><text x="90" y="206" font-size="13.5" fill="#8b98a5" font-weight="normal" font-family="'JetBrains Mono', ui-monospace, SFMono-Regular, Menlo, Consolas, monospace">Alexis Wallez — Full-Stack &amp; DevOps</text><text x="90" y="234" font-size="13.5" fill="#2dd4bf" font-weight="normal" font-family="'JetBrains Mono', ui-monospace, SFMono-Regular, Menlo, Consolas, monospace">$ </text><text x="104" y="234" font-size="13.5" fill="#e6edf3" font-weight="normal" font-family="'JetBrains Mono', ui-monospace, SFMono-Regular, Menlo, Consolas, monospace">cat stack.txt</text><text x="90" y="254" font-size="13.5" fill="#8b98a5" font-weight="normal" font-family="'JetBrains Mono', ui-monospace, SFMono-Regular, Menlo, Consolas, monospace">React · TypeScript · Node · Fastify · PostgreSQL</text><text x="90" y="282" font-size="13.5" fill="#2dd4bf" font-weight="normal" font-family="'JetBrains Mono', ui-monospace, SFMono-Regular, Menlo, Consolas, monospace">$ </text><text x="104" y="282" font-size="13.5" fill="#e6edf3" font-weight="normal" font-family="'JetBrains Mono', ui-monospace, SFMono-Regular, Menlo, Consolas, monospace">./deploy.sh → Docker · NAS</text><text x="70" y="344" font-size="11.5" fill="#8b98a5" fill-opacity="0.85" font-weight="normal" font-family="'Inter', system-ui, -apple-system, 'Segoe UI', Arial, sans-serif">Accessibility · SEO · i18n FR/EN · tests · CI/CD</text><text x="70" y="368" font-size="11.5" fill="#8b98a5" font-weight="normal" font-family="'Inter', system-ui, -apple-system, 'Segoe UI', Arial, sans-serif">Full-stack, from front-end to deployment — DevOps-minded.</text><text x="620" y="76" font-size="13" fill="#8b98a5" font-weight="normal" font-family="'Inter', system-ui, -apple-system, 'Segoe UI', Arial, sans-serif">Responsive</text><g filter="url(#portfolio-dark-en-sh)"><rect x="620" y="86" width="160" height="302" rx="20" fill="#121c20" stroke="#1f2a30" stroke-width="1.5"/></g><rect x="678" y="100" width="44" height="6" rx="3" fill="#1f2a30"/><text x="638" y="134" font-size="11" fill="#8b98a5" font-weight="bold" font-family="'JetBrains Mono', ui-monospace, SFMono-Regular, Menlo, Consolas, monospace">// </text><text x="662" y="134" font-size="11" fill="#2dd4bf" font-weight="bold" font-family="'JetBrains Mono', ui-monospace, SFMono-Regular, Menlo, Consolas, monospace">alexis.w</text><rect x="636" y="148" width="128" height="108" rx="8" fill="#0e171b" stroke="#1f2a30"/><text x="648" y="172" font-size="10" fill="#2dd4bf" font-weight="normal" font-family="'JetBrains Mono', ui-monospace, SFMono-Regular, Menlo, Consolas, monospace">$ </text><text x="662" y="172" font-size="10" fill="#e6edf3" font-weight="normal" font-family="'JetBrains Mono', ui-monospace, SFMono-Regular, Menlo, Consolas, monospace">whoami</text><text x="648" y="189" font-size="10" fill="#8b98a5" font-weight="normal" font-family="'JetBrains Mono', ui-monospace, SFMono-Regular, Menlo, Consolas, monospace">Full-Stack</text><text x="648" y="204" font-size="10" fill="#8b98a5" font-weight="normal" font-family="'JetBrains Mono', ui-monospace, SFMono-Regular, Menlo, Consolas, monospace">&amp; DevOps</text><text x="648" y="228" font-size="10" fill="#2dd4bf" font-weight="normal" font-family="'JetBrains Mono', ui-monospace, SFMono-Regular, Menlo, Consolas, monospace">$ </text><text x="662" y="228" font-size="10" fill="#e6edf3" font-weight="normal" font-family="'JetBrains Mono', ui-monospace, SFMono-Regular, Menlo, Consolas, monospace">ls skills/</text><text x="648" y="244" font-size="10" fill="#8b98a5" font-weight="normal" font-family="'JetBrains Mono', ui-monospace, SFMono-Regular, Menlo, Consolas, monospace">Docker · Linux</text><rect x="636" y="338" width="128" height="34" rx="9" fill="#2dd4bf"/><text x="700" y="360" font-size="11" fill="#06201d" font-weight="bold" font-family="'Inter', system-ui, -apple-system, 'Segoe UI', Arial, sans-serif" text-anchor="middle">→ Contact</text><text x="800" y="76" font-size="13" fill="#8b98a5" font-weight="normal" font-family="'Inter', system-ui, -apple-system, 'Segoe UI', Arial, sans-serif">Open source</text><g filter="url(#portfolio-dark-en-sh)"><rect x="800" y="86" width="352" height="128" rx="12" fill="#121c20" stroke="#1f2a30" stroke-width="1.5"/></g><path transform="translate(822 108)" d="M12 .297c-6.63 0-12 5.373-12 12 0 5.303 3.438 9.8 8.205 11.385.6.113.82-.258.82-.577 0-.285-.01-1.04-.015-2.04-3.338.724-4.042-1.61-4.042-1.61C4.422 18.07 3.633 17.7 3.633 17.7c-1.087-.744.084-.729.084-.729 1.205.084 1.838 1.236 1.838 1.236 1.07 1.835 2.809 1.305 3.495.998.108-.776.417-1.305.76-1.605-2.665-.3-5.466-1.332-5.466-5.93 0-1.31.465-2.38 1.235-3.22-.135-.303-.54-1.523.105-3.176 0 0 1.005-.322 3.3 1.23.96-.267 1.98-.399 3-.405 1.02.006 2.04.138 3 .405 2.28-1.552 3.285-1.23 3.285-1.23.645 1.653.24 2.873.12 3.176.765.84 1.23 1.91 1.23 3.22 0 4.61-2.805 5.625-5.475 5.92.42.36.81 1.096.81 2.22 0 1.606-.015 2.896-.015 3.286 0 .315.21.69.825.57C20.565 22.092 24 17.592 24 12.297c0-6.627-5.373-12-12-12" fill="#e6edf3"/><text x="860" y="120" font-size="15" fill="#e6edf3" font-weight="bold" font-family="'Inter', system-ui, -apple-system, 'Segoe UI', Arial, sans-serif">GitHub — open source</text><text x="860" y="140" font-size="12" fill="#8b98a5" font-weight="normal" font-family="'Inter', system-ui, -apple-system, 'Segoe UI', Arial, sans-serif">AWallez / portfolio</text><circle cx="824" cy="172" r="4" fill="#2dd4bf"/><text x="836" y="176" font-size="12" fill="#2dd4bf" font-weight="normal" font-family="'Inter', system-ui, -apple-system, 'Segoe UI', Arial, sans-serif">Public · CI passing</text><text x="824" y="200" font-size="11" fill="#8b98a5" font-weight="normal" font-family="'Inter', system-ui, -apple-system, 'Segoe UI', Arial, sans-serif">React · TS · Fastify · PostgreSQL · Docker</text><g filter="url(#portfolio-dark-en-sh)"><rect x="800" y="234" width="352" height="154" rx="12" fill="#121c20" stroke="#1f2a30" stroke-width="1.5"/></g><text x="820" y="262" font-size="13" fill="#e6edf3" font-weight="bold" font-family="'Inter', system-ui, -apple-system, 'Segoe UI', Arial, sans-serif">Polished</text><rect x="820" y="276" width="106" height="22" rx="5" fill="#2dd4bf" fill-opacity="0.12" stroke="#2dd4bf" stroke-opacity="0.32"/><text x="830" y="291" font-size="11" fill="#2dd4bf" font-weight="normal" font-family="'JetBrains Mono', ui-monospace, SFMono-Regular, Menlo, Consolas, monospace">Accessibility</text><rect x="934" y="276" width="40" height="22" rx="5" fill="#2dd4bf" fill-opacity="0.12" stroke="#2dd4bf" stroke-opacity="0.32"/><text x="944" y="291" font-size="11" fill="#2dd4bf" font-weight="normal" font-family="'JetBrains Mono', ui-monospace, SFMono-Regular, Menlo, Consolas, monospace">SEO</text><rect x="982" y="276" width="86" height="22" rx="5" fill="#2dd4bf" fill-opacity="0.12" stroke="#2dd4bf" stroke-opacity="0.32"/><text x="992" y="291" font-size="11" fill="#2dd4bf" font-weight="normal" font-family="'JetBrains Mono', ui-monospace, SFMono-Regular, Menlo, Consolas, monospace">i18n FR/EN</text><rect x="820" y="308" width="86" height="22" rx="5" fill="#2dd4bf" fill-opacity="0.12" stroke="#2dd4bf" stroke-opacity="0.32"/><text x="830" y="323" font-size="11" fill="#2dd4bf" font-weight="normal" font-family="'JetBrains Mono', ui-monospace, SFMono-Regular, Menlo, Consolas, monospace">Responsive</text><rect x="914" y="308" width="99" height="22" rx="5" fill="#2dd4bf" fill-opacity="0.12" stroke="#2dd4bf" stroke-opacity="0.32"/><text x="924" y="323" font-size="11" fill="#2dd4bf" font-weight="normal" font-family="'JetBrains Mono', ui-monospace, SFMono-Regular, Menlo, Consolas, monospace">Vitest tests</text><rect x="1021" y="308" width="106" height="22" rx="5" fill="#2dd4bf" fill-opacity="0.12" stroke="#2dd4bf" stroke-opacity="0.32"/><text x="1031" y="323" font-size="11" fill="#2dd4bf" font-weight="normal" font-family="'JetBrains Mono', ui-monospace, SFMono-Regular, Menlo, Consolas, monospace">CI/CD Actions</text><rect x="820" y="340" width="139" height="22" rx="5" fill="#2dd4bf" fill-opacity="0.12" stroke="#2dd4bf" stroke-opacity="0.32"/><text x="830" y="355" font-size="11" fill="#2dd4bf" font-weight="normal" font-family="'JetBrains Mono', ui-monospace, SFMono-Regular, Menlo, Consolas, monospace">Light / dark theme</text><rect x="967" y="340" width="106" height="22" rx="5" fill="#2dd4bf" fill-opacity="0.12" stroke="#2dd4bf" stroke-opacity="0.32"/><text x="977" y="355" font-size="11" fill="#2dd4bf" font-weight="normal" font-family="'JetBrains Mono', ui-monospace, SFMono-Regular, Menlo, Consolas, monospace">Containerized</text><text x="48" y="412" font-size="13" fill="#8b98a5" font-weight="normal" font-family="'Inter', system-ui, -apple-system, 'Segoe UI', Arial, sans-serif">Contact form → API → push notification (ntfy)</text><g filter="url(#portfolio-dark-en-sh)"><rect x="48" y="424" width="372" height="214" rx="12" fill="#121c20" stroke="#1f2a30" stroke-width="1.5"/></g><text x="66" y="452" font-size="13" fill="#e6edf3" font-weight="bold" font-family="'Inter', system-ui, -apple-system, 'Segoe UI', Arial, sans-serif">Contact us</text><rect x="66" y="462" width="166" height="28" rx="7" fill="#0e171b" stroke="#1f2a30"/><text x="78" y="480" font-size="10" fill="#8b98a5" fill-opacity="0.85" font-weight="normal" font-family="'Inter', system-ui, -apple-system, 'Segoe UI', Arial, sans-serif">First name</text><rect x="240" y="462" width="164" height="28" rx="7" fill="#0e171b" stroke="#1f2a30"/><text x="252" y="480" font-size="10" fill="#8b98a5" fill-opacity="0.85" font-weight="normal" font-family="'Inter', system-ui, -apple-system, 'Segoe UI', Arial, sans-serif">Last name</text><rect x="66" y="498" width="166" height="28" rx="7" fill="#0e171b" stroke="#1f2a30"/><text x="78" y="516" font-size="10" fill="#8b98a5" fill-opacity="0.85" font-weight="normal" font-family="'Inter', system-ui, -apple-system, 'Segoe UI', Arial, sans-serif">Email</text><rect x="240" y="498" width="164" height="28" rx="7" fill="#0e171b" stroke="#1f2a30"/><text x="252" y="516" font-size="10" fill="#8b98a5" fill-opacity="0.85" font-weight="normal" font-family="'Inter', system-ui, -apple-system, 'Segoe UI', Arial, sans-serif">Phone</text><rect x="66" y="534" width="338" height="28" rx="7" fill="#0e171b" stroke="#1f2a30"/><text x="78" y="552" font-size="10" fill="#8b98a5" fill-opacity="0.85" font-weight="normal" font-family="'Inter', system-ui, -apple-system, 'Segoe UI', Arial, sans-serif">Request type</text><text x="390" y="552" font-size="12" fill="#8b98a5" font-weight="normal" font-family="'Inter', system-ui, -apple-system, 'Segoe UI', Arial, sans-serif" text-anchor="middle">▾</text><rect x="66" y="570" width="338" height="22" rx="7" fill="#0e171b" stroke="#1f2a30"/><text x="78" y="585" font-size="10" fill="#8b98a5" fill-opacity="0.85" font-weight="normal" font-family="'Inter', system-ui, -apple-system, 'Segoe UI', Arial, sans-serif">Message…</text><rect x="66" y="600" width="338" height="26" rx="8" fill="#2dd4bf"/><text x="235" y="618" font-size="11" fill="#06201d" font-weight="bold" font-family="'Inter', system-ui, -apple-system, 'Segoe UI', Arial, sans-serif" text-anchor="middle">→ Send</text><line x1="424" y1="500" x2="482" y2="500" stroke="#8b98a5" stroke-width="2" marker-end="url(#portfolio-dark-en-arrow)"/><rect x="424" y="474" width="58" height="20" rx="10" fill="#0d1418"/><rect x="424" y="474" width="58" height="20" rx="10" fill="#2dd4bf" fill-opacity="0.14" stroke="#2dd4bf" stroke-opacity="0.32"/><text x="453" y="488" font-size="10" fill="#2dd4bf" font-weight="bold" font-family="'JetBrains Mono', ui-monospace, SFMono-Regular, Menlo, Consolas, monospace" text-anchor="middle">Caddy</text><text x="453" y="516" font-size="10" fill="#8b98a5" font-weight="normal" font-family="'Inter', system-ui, -apple-system, 'Segoe UI', Arial, sans-serif" text-anchor="middle">POST</text><g filter="url(#portfolio-dark-en-sh)"><rect x="488" y="470" width="168" height="76" rx="12" fill="#06121a" stroke="#06121a" stroke-width="1.5"/></g><circle cx="510" cy="500" r="6" fill="#2dd4bf"/><text x="524" y="497" font-size="13" fill="#e6edf3" font-weight="bold" font-family="'Inter', system-ui, -apple-system, 'Segoe UI', Arial, sans-serif">Fastify API</text><text x="506" y="524" font-size="11" fill="#e6edf3" fill-opacity="0.7" font-weight="normal" font-family="'JetBrains Mono', ui-monospace, SFMono-Regular, Menlo, Consolas, monospace">/api/contact</text><text x="506" y="540" font-size="10" fill="#e6edf3" fill-opacity="0.55" font-weight="normal" font-family="'Inter', system-ui, -apple-system, 'Segoe UI', Arial, sans-serif">PostgreSQL · validation</text><line x1="656" y1="508" x2="712" y2="520" stroke="#8b98a5" stroke-width="2" marker-end="url(#portfolio-dark-en-arrow)"/><text x="684" y="500" font-size="10" fill="#8b98a5" font-weight="normal" font-family="'Inter', system-ui, -apple-system, 'Segoe UI', Arial, sans-serif" text-anchor="middle">publish</text><text x="718" y="452" font-size="13" fill="#8b98a5" font-weight="normal" font-family="'Inter', system-ui, -apple-system, 'Segoe UI', Arial, sans-serif">Push notification</text><g filter="url(#portfolio-dark-en-sh)"><rect x="718" y="462" width="434" height="156" rx="14" fill="#121c20" stroke="#1f2a30" stroke-width="1.5"/></g><rect x="738" y="482" width="40" height="40" rx="10" fill="#2dd4bf"/><path d="M758 492 a9 9 0 0 1 9 9 v5 l2 3 h-22 l2 -3 v-5 a9 9 0 0 1 9 -9 z" fill="#06201d"/><circle cx="758" cy="514" r="2.5" fill="#06201d"/><text x="790" y="498" font-size="13" fill="#e6edf3" font-weight="bold" font-family="'Inter', system-ui, -apple-system, 'Segoe UI', Arial, sans-serif">ntfy</text><text x="790" y="515" font-size="10.5" fill="#8b98a5" font-weight="normal" font-family="'Inter', system-ui, -apple-system, 'Segoe UI', Arial, sans-serif">on your phone</text><text x="1134" y="498" font-size="10" fill="#8b98a5" fill-opacity="0.8" font-weight="normal" font-family="'Inter', system-ui, -apple-system, 'Segoe UI', Arial, sans-serif" text-anchor="end">now</text><line x1="738" y1="536" x2="1132" y2="536" stroke="#1f2a30"/><text x="738" y="560" font-size="13" fill="#e6edf3" font-weight="bold" font-family="'Inter', system-ui, -apple-system, 'Segoe UI', Arial, sans-serif">New message — Marie Dupont</text><text x="738" y="580" font-size="11" fill="#8b98a5" font-weight="normal" font-family="'Inter', system-ui, -apple-system, 'Segoe UI', Arial, sans-serif">marie@example.com · Freelance project</text><text x="738" y="600" font-size="11" fill="#8b98a5" fill-opacity="0.85" font-weight="normal" font-family="'Inter', system-ui, -apple-system, 'Segoe UI', Arial, sans-serif">&quot;Hi, I'd like a quote to redesign my website…&quot;</text>
</svg>